<svg width="80" height="120" viewBox="0 0 80 120" fill="none" xmlns="http://www.w3.org/2000/svg">
<path d="M27.366 15.8419C27.366 13.1678 29.5151 11 32.166 11H48.166C50.817 11 52.966 13.1678 52.966 15.8419V17.4559C52.966 20.464 50.9264 22.9917 48.166 23.7084V28.7537C49.4353 28.7537 50.5686 29.3091 51.4828 30.0084C52.4058 30.7145 53.2182 31.6508 53.8856 32.6324C55.18 34.5365 56.166 36.9747 56.166 38.841C56.166 40.93 54.7353 42.6819 52.8084 43.1541L54.9006 53.5759C55.3676 55.9662 53.2228 57.5539 52.0121 53.5759L48.6144 43.2794H48.1154L47.9721 49.7068C47.9018 52.1805 45.9026 51.8587 45.8102 49.7068L45.1752 43.2794H35.1584L34.5232 49.7068C34.4308 51.8587 32.4314 52.1805 32.3614 49.7068L32.218 43.2794H31.7177L28.32 53.5759C27.1092 57.5539 24.9644 55.9662 25.4314 53.5759L27.5237 43.1541C25.5968 42.6819 24.166 40.93 24.166 38.841C24.166 36.9747 25.1521 34.5365 26.4465 32.6324C27.1138 31.6508 27.9263 30.7145 28.8492 30.0084C29.7634 29.3091 30.8968 28.7537 32.166 28.7537V23.7084C29.4057 22.9917 27.366 20.464 27.366 17.4559V15.8419ZM32.166 31.9816C31.8353 31.9816 31.3686 32.1324 30.7828 32.5804C30.2058 33.0218 29.6183 33.6743 29.0856 34.458C27.98 36.0844 27.366 37.8827 27.366 38.841C27.366 39.5095 27.9033 40.0515 28.566 40.0515H51.766C52.4288 40.0515 52.966 39.5095 52.966 38.841C52.966 37.8827 52.3521 36.0844 51.2465 34.458C50.7138 33.6743 50.1262 33.0218 49.5492 32.5804C48.9634 32.1324 48.4968 31.9816 48.166 31.9816H32.166ZM44.966 28.7537V23.9118H35.366V28.7537H44.966ZM49.766 17.4559V15.8419C49.766 14.9506 49.0497 14.2279 48.166 14.2279H32.166C31.2824 14.2279 30.566 14.9506 30.566 15.8419V17.4559C30.566 19.2386 31.9986 20.6838 33.766 20.6838H46.566C48.3334 20.6838 49.766 19.2386 49.766 17.4559Z" fill="#403F6F"/>
<path d="M12.0157 92.9712V84.1449C10.71 84.6101 9.72487 84.9474 9.06036 85.1566C8.40749 85.3543 7.96443 85.4531 7.73126 85.4531C7.21829 85.4531 6.82195 85.3137 6.54214 85.0344C6.27398 84.7554 6.1399 84.3542 6.1399 83.8309C6.1399 82.9471 6.79277 82.3483 8.09851 82.0342L12.0157 80.9178V73.1381H9.79478C9.61996 75.3244 9.34598 76.9699 8.97291 78.0746C8.61148 79.1793 8.11597 79.7318 7.48646 79.7318C7.02012 79.7318 6.65287 79.6154 6.38471 79.383C6.12826 79.1503 6 78.8189 6 78.3886V78.3711V78.3537L6.1399 77.6211V77.6036C6.79277 75.2895 7.1892 72.2253 7.3291 68.411C7.37566 66.9109 7.85952 66.1608 8.78056 66.1608C9.24689 66.1608 9.60243 66.2888 9.84724 66.5446C10.1038 66.7888 10.232 67.1435 10.232 67.6086V67.6261L10.0921 69.7542L10.0397 70.103H12.0157V64.2246C12.0157 63.6781 12.1382 63.2536 12.383 62.9513C12.6394 62.6489 13.0126 62.4977 13.5022 62.4977C13.9918 62.4977 14.3591 62.6489 14.6039 62.9513C14.8604 63.2536 14.9887 63.6781 14.9887 64.2246V70.103H16.9647C17.4544 70.103 17.8275 70.2368 18.0839 70.5042C18.3522 70.7717 18.4862 71.1554 18.4862 71.6554C18.4862 72.1322 18.3522 72.4985 18.0839 72.7544C17.8275 73.0102 17.4544 73.1381 16.9647 73.1381H14.9887V79.9585L16.0554 79.5398C16.2302 79.47 16.3818 79.4177 16.51 79.383C16.6499 79.3364 16.7782 79.3014 16.8948 79.2783C17.0114 79.255 17.1163 79.2434 17.2095 79.2434C17.6642 79.2434 18.014 79.3713 18.2587 79.6271C18.5036 79.8712 18.6261 80.226 18.6261 80.6911C18.6261 81.3075 18.2937 81.7609 17.6292 82.0516C17.1163 82.2725 16.2361 82.6216 14.9887 83.0983V92.9712C14.9887 93.5295 14.8604 93.9596 14.6039 94.2621C14.3591 94.576 13.9918 94.7329 13.5022 94.7329C13.0126 94.7329 12.6394 94.576 12.383 94.2621C12.1382 93.9596 12.0157 93.5295 12.0157 92.9712ZM27.5448 92.3084C27.5448 91.2618 28.3375 90.6978 29.923 90.6163C31.322 90.5467 32.1439 90.3024 32.3889 89.8837L32.4063 89.8488L32.4412 89.8314C32.6161 89.6686 32.791 89.1046 32.9659 88.1394C33.1524 87.1626 33.3331 85.7322 33.5081 83.8484C33.6828 81.9529 33.8403 79.7084 33.9801 77.1153L34.1901 72.5277C34.1901 72.4114 34.1842 72.3067 34.1725 72.2137C34.1609 72.1207 34.1376 72.0392 34.1026 71.9694C34.0793 71.8997 34.0443 71.8415 33.9976 71.795C33.9511 71.7369 33.8928 71.6962 33.8228 71.6729C33.7528 71.638 33.6713 71.6147 33.5779 71.6031C33.4964 71.5799 33.4031 71.5683 33.2981 71.5683H32.5986C32.0274 75.6267 31.1764 79.005 30.0455 81.7028C28.868 84.4472 27.0493 87.0405 24.5894 89.4825C22.0711 91.9129 20.2873 93.1282 19.2381 93.1282C18.7484 93.1282 18.3696 92.9829 18.1015 92.6921C17.8449 92.4131 17.7167 92.006 17.7167 91.471C17.7167 90.8896 18.2705 90.2443 19.3781 89.5348C25.4287 85.674 28.8446 79.6852 29.6258 71.5683H27.7196C26.9386 75.6733 25.4404 78.9992 23.2253 81.5459C22.4675 82.4296 21.8088 83.1506 21.2491 83.7088C20.7013 84.267 20.2116 84.6973 19.7802 84.9995C19.3489 85.302 18.9934 85.4531 18.7134 85.4531C18.2355 85.4531 17.8683 85.3251 17.6118 85.0693C17.3553 84.8135 17.2271 84.4472 17.2271 83.9704C17.2271 83.6681 17.3553 83.3542 17.6118 83.0285C17.74 82.8773 17.8974 82.7146 18.0839 82.5401C18.2705 82.3658 18.4862 82.1738 18.731 81.9645C22.1585 79.2783 24.1987 75.8127 24.8517 71.5683H22.3683C21.4824 73.6964 20.6954 75.2837 20.0076 76.3303C19.3314 77.3652 18.7019 77.8828 18.1189 77.8828C17.6292 77.8828 17.2503 77.749 16.9823 77.4816C16.7257 77.214 16.5975 76.8303 16.5975 76.3303C16.5975 76.0628 16.9473 75.3768 17.6468 74.2719C18.5212 72.8882 19.1681 71.5856 19.5879 70.3647C19.7394 69.9112 19.8852 69.4518 20.0251 68.9867C20.1766 68.5099 20.3166 68.0389 20.4448 67.5737C20.5846 67.097 20.7129 66.6202 20.8296 66.1434C20.9578 65.6666 21.0743 65.1898 21.1793 64.7131C21.5056 63.2362 22.141 62.4977 23.0854 62.4977C23.6217 62.4977 24.0297 62.6315 24.3095 62.8989C24.601 63.1548 24.7467 63.5269 24.7467 64.0153C24.7467 64.527 24.327 66.0096 23.4875 68.4633H33.6828C34.872 68.4633 35.7698 68.7424 36.376 69.3006C36.9939 69.8472 37.3027 70.6555 37.3027 71.7252C37.3027 77.6676 36.9997 83.0226 36.3935 87.7906C36.2302 89.1046 36.0088 90.1803 35.729 91.0175C35.6007 91.4478 35.4433 91.8199 35.2568 92.1339C35.0818 92.4595 34.8837 92.727 34.6623 92.9363C33.7295 93.7853 32.1906 94.2097 30.0455 94.2097C28.3783 94.2097 27.5448 93.5759 27.5448 92.3084ZM53.1991 78.4758C53.4438 78.7433 53.5663 79.1329 53.5663 79.6445C53.5663 80.3655 53.1349 80.8481 52.2722 81.0923L49.8589 81.9122V90.8432C49.8822 91.1105 49.888 91.3663 49.8764 91.6107C49.8182 92.634 49.4684 93.3899 48.8272 93.8783C48.1975 94.3666 47.2998 94.5818 46.1341 94.5236H44.2454C43.7207 94.5236 43.3185 94.3783 43.0387 94.0875C42.759 93.8085 42.619 93.4015 42.619 92.8665C42.619 92.3316 42.759 91.9188 43.0387 91.6281C43.3185 91.3489 43.7207 91.2095 44.2454 91.2095H45.5744C45.8194 91.2095 46.0174 91.1688 46.1691 91.0873C46.3206 91.006 46.4372 90.8781 46.5188 90.7036C46.6121 90.5292 46.6646 90.3083 46.6761 90.0408V82.9064L46.0816 83.0809C44.4377 83.546 43.4877 83.7786 43.2312 83.7786C42.7647 83.7786 42.4092 83.6332 42.1643 83.3425C41.9312 83.0401 41.8145 82.6216 41.8145 82.0865C41.8145 81.6215 42.0186 81.2435 42.4267 80.9527C42.8464 80.6504 43.441 80.4178 44.2105 80.255L46.6761 79.662V72.3009H43.6858C43.103 72.3009 42.6715 72.173 42.3918 71.9171C42.1002 71.6613 41.9545 71.2717 41.9545 70.7485C41.9545 70.2484 42.1061 69.8646 42.4092 69.5972C42.7123 69.3297 43.1378 69.196 43.6858 69.196H46.6761V64.12C46.6761 63.585 46.816 63.178 47.0958 62.8989C47.3756 62.6082 47.7778 62.4629 48.3025 62.4629C48.8038 62.4629 49.1885 62.6082 49.4567 62.8989C49.7248 63.178 49.8589 63.585 49.8589 64.12V69.196H51.8349C52.4063 69.196 52.8493 69.3297 53.1641 69.5972C53.4788 69.853 53.6363 70.2368 53.6363 70.7485C53.6363 71.2601 53.4788 71.6496 53.1641 71.9171C52.8493 72.173 52.4063 72.3009 51.8349 72.3009H49.8589V78.7549L51.8176 78.1444L51.8349 78.127H51.8525L52.1673 78.0921C52.6103 78.0688 52.9543 78.1967 53.1991 78.4758ZM74.1319 74.7255C74.1319 75.2837 73.9863 75.714 73.6946 76.0164C73.4148 76.3069 73.0067 76.4523 72.4702 76.4523C71.351 76.4523 69.7364 75.4698 67.6263 73.5044C65.5281 71.5741 63.7965 69.5564 62.4325 67.4516C62.0828 68.0331 61.6688 68.6378 61.1908 69.2657C60.7246 69.8937 60.1999 70.545 59.617 71.2193C59.0458 71.8823 58.4104 72.5858 57.7109 73.3301C55.5307 75.6442 53.9568 76.8012 52.9891 76.8012C52.4529 76.8012 52.0391 76.6617 51.7476 76.3827C51.4677 76.0919 51.3279 75.6791 51.3279 75.1441C51.3279 74.8417 51.4911 74.5162 51.8176 74.1674C52.1206 73.8418 52.5869 73.4406 53.2166 72.9638C56.5509 70.4984 59.0166 67.4807 60.6138 63.9107C61.0218 62.992 61.6164 62.5326 62.3975 62.5326C63.5284 62.5326 64.0938 62.9455 64.0938 63.7711C64.0938 63.7827 64.0938 63.8002 64.0938 63.8234C64.0938 63.8351 64.0879 63.8467 64.0764 63.8583C64.0764 63.87 64.0705 63.8874 64.0589 63.9107C64.0589 63.9339 64.0529 63.9572 64.0414 63.9804C64.0414 64.0037 64.0355 64.0328 64.0239 64.0676C64.0239 64.1025 64.0181 64.1316 64.0064 64.1549C63.9947 64.1781 63.9831 64.213 63.9714 64.2596C63.9597 64.2944 63.9481 64.3293 63.9364 64.3642C63.9364 64.3991 63.9247 64.4398 63.9014 64.4863C63.8898 64.5328 63.8781 64.5735 63.8664 64.6084C65.0327 66.4225 66.3675 68.0331 67.871 69.4402C69.3864 70.8357 71.066 72.0276 72.9074 73.0161C73.7237 73.4463 74.1319 74.0161 74.1319 74.7255ZM57.0114 77.3594C56.51 77.3594 56.1369 77.2373 55.8922 76.9931C55.6473 76.749 55.525 76.3652 55.525 75.8419C55.525 75.3185 55.6473 74.9349 55.8922 74.6906C56.1369 74.4464 56.51 74.3243 57.0114 74.3243H68.1336C68.6112 74.3243 68.979 74.458 69.2349 74.7255C69.4916 74.9813 69.62 75.3534 69.62 75.8419C69.62 76.3303 69.4916 76.7081 69.2349 76.9756C68.979 77.2315 68.6112 77.3594 68.1336 77.3594H57.0114ZM68.2038 80.5341C69.3693 80.5341 70.2206 80.7958 70.7563 81.3191C71.3047 81.8424 71.5435 82.6912 71.4734 83.8658V90.1803C71.4734 91.3664 71.2115 92.2386 70.6869 92.7968C70.1616 93.3433 69.3342 93.5816 68.2038 93.512H57.3611C56.1719 93.512 55.3034 93.2503 54.7555 92.727C54.2191 92.2037 53.9861 91.378 54.056 90.25V83.796C54.056 82.6331 54.3183 81.7843 54.8428 81.2494C55.3675 80.7028 56.2069 80.4644 57.3611 80.5341H68.2038ZM68.2911 84.5287C68.2911 84.1914 68.209 83.9472 68.0463 83.796C67.8941 83.6332 67.6434 83.546 67.2942 83.5343H58.2005C58.0722 83.5343 57.9557 83.546 57.8507 83.5692C57.7458 83.5925 57.6527 83.6332 57.5709 83.6914C57.501 83.7379 57.4369 83.8018 57.3786 83.8832C57.332 83.9647 57.2911 84.0577 57.2562 84.1624C57.2329 84.267 57.2154 84.3891 57.2037 84.5287V89.5174C57.2037 89.843 57.2794 90.0872 57.4311 90.25C57.5942 90.4013 57.8507 90.4884 58.2005 90.5118H67.2942C67.6203 90.5118 67.8598 90.4362 68.0113 90.2849C68.1739 90.1221 68.2672 89.8663 68.2911 89.5174V84.5287Z" fill="url(#paint0_linear_4331_6958)"/>
<path d="M38.5856 107.444C38.5856 106.432 38.5415 105.714 38.4534 105.289C38.38 104.85 38.233 104.564 38.0126 104.432C37.7922 104.3 37.4175 104.234 36.8885 104.234C36.3155 104.234 35.8967 104.366 35.6323 104.63C35.3825 104.893 35.2208 105.275 35.1474 105.773C35.0886 106.257 35.0593 107.004 35.0593 108.015V113.863H33.0977V97.5288H35.0593V103.97H35.1694C35.5661 102.974 36.4257 102.475 37.7481 102.475C38.5415 102.475 39.1366 102.622 39.5333 102.915C39.9301 103.208 40.1945 103.648 40.3267 104.234C40.4737 104.82 40.5471 105.634 40.5471 106.674V113.863H38.5856V107.444ZM46.5899 114.039C45.385 114.039 44.5108 113.885 43.9672 113.577C43.4382 113.255 43.0929 112.713 42.9313 111.95C42.7843 111.188 42.7109 109.957 42.7109 108.257C42.7109 106.557 42.7843 105.326 42.9313 104.564C43.0929 103.802 43.4382 103.267 43.9672 102.959C44.5108 102.636 45.385 102.475 46.5899 102.475C47.7947 102.475 48.6617 102.636 49.1906 102.959C49.7342 103.267 50.0795 103.802 50.2265 104.564C50.388 105.326 50.4689 106.557 50.4689 108.257C50.4689 109.957 50.388 111.188 50.2265 111.95C50.0795 112.713 49.7342 113.255 49.1906 113.577C48.6617 113.885 47.7947 114.039 46.5899 114.039ZM46.5899 112.39C47.2216 112.39 47.6624 112.302 47.9122 112.126C48.1768 111.936 48.3384 111.577 48.3972 111.049C48.4706 110.521 48.5074 109.591 48.5074 108.257C48.5074 106.923 48.4706 105.993 48.3972 105.465C48.3384 104.938 48.1768 104.586 47.9122 104.41C47.6624 104.219 47.2216 104.124 46.5899 104.124C45.9433 104.124 45.4952 104.219 45.2455 104.41C44.9956 104.586 44.834 104.938 44.7606 105.465C44.7018 105.978 44.6723 106.909 44.6723 108.257C44.6723 109.605 44.7018 110.543 44.7606 111.071C44.834 111.584 44.9956 111.936 45.2455 112.126C45.4952 112.302 45.9433 112.39 46.5899 112.39ZM63.2413 107.444C63.2413 106.418 63.2047 105.692 63.1311 105.267C63.0725 104.842 62.9402 104.564 62.7344 104.432C62.5288 104.3 62.1835 104.234 61.6986 104.234C61.1403 104.234 60.7288 104.366 60.4644 104.63C60.2146 104.879 60.0603 105.245 60.0015 105.729C59.9428 106.213 59.9134 106.975 59.9134 108.015V113.863H57.9518V107.444C57.9518 106.432 57.9152 105.714 57.8416 105.289C57.7682 104.85 57.6287 104.564 57.4228 104.432C57.232 104.3 56.8939 104.234 56.409 104.234C55.8507 104.234 55.4393 104.366 55.1748 104.63C54.925 104.893 54.7707 105.275 54.7119 105.773C54.6533 106.271 54.6238 107.019 54.6238 108.015V113.863H52.6622V102.651H54.4254L54.5136 104.146H54.6458C54.8516 103.604 55.1528 103.193 55.5495 102.915C55.9462 102.622 56.5046 102.475 57.2245 102.475C58.0033 102.475 58.5763 102.607 58.9436 102.871C59.3257 103.12 59.5902 103.545 59.737 104.146H59.8693C60.0603 103.604 60.3616 103.193 60.7729 102.915C61.1991 102.622 61.7721 102.475 62.492 102.475C63.2561 102.475 63.8291 102.622 64.2111 102.915C64.5932 103.193 64.8502 103.626 64.9822 104.212C65.1292 104.798 65.2031 105.619 65.2031 106.674V113.863H63.2413V107.444ZM74.8701 108.873H69.3158C69.3158 109.957 69.3673 110.734 69.4703 111.203C69.5732 111.657 69.7859 111.972 70.1097 112.148C70.4469 112.309 71.0133 112.39 71.8064 112.39C72.6145 112.39 73.533 112.317 74.5612 112.17V113.709C74.209 113.797 73.7315 113.87 73.1286 113.929C72.5414 114.002 71.9683 114.039 71.4095 114.039C70.1903 114.039 69.2942 113.863 68.7211 113.511C68.1623 113.16 67.7952 112.603 67.6191 111.84C67.4572 111.064 67.3766 109.877 67.3766 108.279C67.3766 106.696 67.4497 105.524 67.5967 104.762C67.7586 103.985 68.1108 103.413 68.6547 103.047C69.1987 102.666 70.0723 102.475 71.2774 102.475C72.4235 102.475 73.2465 102.651 73.7456 103.003C74.2455 103.355 74.5544 103.904 74.6716 104.652C74.8037 105.399 74.8701 106.601 74.8701 108.257V108.873ZM71.2334 104.08C70.6454 104.08 70.2194 104.161 69.9552 104.322C69.7053 104.483 69.5367 104.791 69.4479 105.245C69.3747 105.7 69.3307 106.454 69.3158 107.51H72.9965V107.334C72.9965 106.337 72.945 105.619 72.8421 105.179C72.754 104.725 72.5928 104.432 72.3571 104.3C72.122 104.153 71.7475 104.08 71.2334 104.08Z" fill="#8183D3"/>
<path d="M13.5584 113.863L11.7952 108.015H11.663H9.12837V113.863H7.05664V98.738H11.8393C12.8825 98.738 13.6686 98.9285 14.1976 99.3095C14.7265 99.676 15.0718 100.182 15.2334 100.826C15.395 101.471 15.4758 102.321 15.4758 103.377C15.4758 104.476 15.3583 105.384 15.1232 106.103C14.9028 106.806 14.4473 107.312 13.7567 107.62L15.7403 113.863H13.5584ZM11.3103 106.235C11.9274 106.235 12.383 106.139 12.6768 105.949C12.9707 105.758 13.1617 105.472 13.2498 105.091C13.338 104.696 13.3821 104.124 13.3821 103.377C13.3821 102.614 13.338 102.043 13.2498 101.662C13.1764 101.281 12.9927 101.002 12.6989 100.826C12.4197 100.636 11.9642 100.541 11.3324 100.541H9.12837V106.235H11.3103ZM24.935 108.873H19.381C19.381 109.957 19.4324 110.734 19.5353 111.203C19.6382 111.657 19.8511 111.972 20.1744 112.148C20.5123 112.309 21.0781 112.39 21.8715 112.39C22.6796 112.39 23.5979 112.317 24.6265 112.17V113.709C24.2738 113.797 23.7962 113.87 23.1939 113.929C22.6062 114.002 22.0331 114.039 21.4748 114.039C20.2553 114.039 19.359 113.863 18.7859 113.511C18.2277 113.16 17.8603 112.603 17.684 111.84C17.5223 111.064 17.4415 109.877 17.4415 108.279C17.4415 106.696 17.515 105.524 17.6619 104.762C17.8236 103.985 18.1761 103.413 18.7198 103.047C19.2635 102.666 20.1376 102.475 21.3426 102.475C22.4886 102.475 23.3114 102.651 23.811 103.003C24.3106 103.355 24.6192 103.904 24.7367 104.652C24.8689 105.399 24.935 106.601 24.935 108.257V108.873ZM21.2985 104.08C20.7107 104.08 20.2846 104.161 20.0202 104.322C19.7705 104.483 19.6014 104.791 19.5133 105.245C19.4398 105.7 19.3957 106.454 19.381 107.51H23.0617V107.334C23.0617 106.337 23.0103 105.619 22.9074 105.179C22.8192 104.725 22.6576 104.432 22.4225 104.3C22.1873 104.153 21.8127 104.08 21.2985 104.08ZM27.1116 104.893V102.651H29.3156V104.893H27.1116ZM27.1116 113.863V111.621H29.3156V113.863H27.1116Z" fill="#8183D3"/>
<defs>
<linearGradient id="paint0_linear_4331_6958" x1="40.0659" y1="62.4629" x2="40.0659" y2="94.7329" gradientUnits="userSpaceOnUse">
<stop stop-color="#403F6F"/>
<stop offset="1" stop-color="#8183D3"/>
</linearGradient>
</defs>
</svg>
