<svg width="64" height="64" viewBox="0 0 64 64" fill="none" xmlns="http://www.w3.org/2000/svg">
<path d="M57.0195 28.4104V15.1279C57.0531 14.2524 56.7387 13.3991 56.1451 12.7547C55.5515 12.1102 54.7269 11.7269 53.8515 11.6885H10.3291C9.45365 11.7268 8.62896 12.1101 8.03519 12.7546C7.44142 13.399 7.12683 14.2523 7.16016 15.1279V28.366C6.27229 28.5357 5.47122 29.0093 4.89455 29.7054C4.31787 30.4015 4.00158 31.2767 4 32.1807V47.1123C3.99997 47.2436 4.02581 47.3737 4.07605 47.495C4.12629 47.6164 4.19995 47.7266 4.29282 47.8195C4.38568 47.9123 4.49594 47.986 4.61728 48.0362C4.73862 48.0865 4.86867 48.1123 5 48.1123H7.15723V51.3115C7.15719 51.4428 7.18304 51.5729 7.23328 51.6942C7.28352 51.8156 7.35718 51.9258 7.45004 52.0187C7.54291 52.1116 7.65316 52.1852 7.7745 52.2355C7.89585 52.2857 8.0259 52.3116 8.15723 52.3115H12.6445C12.7759 52.3116 12.9059 52.2857 13.0273 52.2355C13.1486 52.1852 13.2589 52.1116 13.3517 52.0187C13.4446 51.9258 13.5182 51.8156 13.5685 51.6942C13.6187 51.5729 13.6446 51.4428 13.6445 51.3115V48.1123H50.5352V51.3115C50.5351 51.4428 50.561 51.5729 50.6112 51.6942C50.6615 51.8156 50.7351 51.9258 50.828 52.0187C50.9208 52.1116 51.0311 52.1852 51.1524 52.2355C51.2738 52.2857 51.4038 52.3116 51.5352 52.3115H56.0225C56.1538 52.3116 56.2838 52.2857 56.4052 52.2355C56.5265 52.1852 56.6368 52.1116 56.7296 52.0187C56.8225 51.9258 56.8962 51.8156 56.9464 51.6942C56.9967 51.5729 57.0225 51.4428 57.0225 51.3115V48.1123H59C59.1313 48.1123 59.2614 48.0865 59.3827 48.0362C59.5041 47.986 59.6143 47.9123 59.7072 47.8195C59.8 47.7266 59.8737 47.6164 59.924 47.495C59.9742 47.3737 60 47.2436 60 47.1123V32.1807C59.9978 31.3091 59.7028 30.4635 59.1622 29.7797C58.6217 29.096 57.8671 28.6137 57.0195 28.4104ZM10.3291 13.6885H53.8516C54.1956 13.7285 54.5104 13.9015 54.7286 14.1704C54.9468 14.4394 55.0513 14.783 55.0196 15.1279V28.2925H50.9648V23.7735C50.9619 22.9671 50.6393 22.1949 50.0677 21.6261C49.4962 21.0573 48.7224 20.7383 47.916 20.7393H40.0625C39.2561 20.7383 38.4824 21.0573 37.9108 21.6261C37.3393 22.1949 37.0166 22.9671 37.0137 23.7734V28.2924H27.0322V23.7734C27.0292 22.9669 26.7064 22.1946 26.1347 21.6258C25.5629 21.057 24.7889 20.7381 23.9824 20.7393H16.1299C15.3235 20.7383 14.5497 21.0573 13.9782 21.6261C13.4067 22.1949 13.084 22.9671 13.081 23.7734V28.2924H9.16016V15.1279C9.12848 14.7829 9.23303 14.4391 9.45147 14.1701C9.6699 13.9011 9.98489 13.7283 10.3291 13.6885ZM39.0137 28.2925V23.7735C39.016 23.4974 39.1277 23.2334 39.3243 23.0396C39.5209 22.8457 39.7864 22.7377 40.0625 22.7393H47.916C48.1911 22.741 48.4547 22.8501 48.6506 23.0432C48.8465 23.2364 48.9592 23.4984 48.9648 23.7735V28.2925H39.0137ZM15.081 28.2925V23.7735C15.0833 23.4974 15.195 23.2334 15.3917 23.0396C15.5883 22.8457 15.8538 22.7377 16.1299 22.7393H23.9824C24.2577 22.7408 24.5215 22.8498 24.7176 23.043C24.9137 23.2361 25.0266 23.4983 25.0322 23.7735V28.2925H15.081ZM7.8877 30.2925C20.9095 30.2924 36.9194 30.2925 49.9624 30.2925H56.1123C56.6129 30.2931 57.0927 30.4923 57.4466 30.8462C57.8005 31.2002 57.9995 31.6801 58 32.1807V35.8467H6V32.1807C6.0005 31.6801 6.19953 31.2002 6.55342 30.8462C6.90731 30.4923 7.38716 30.2931 7.8877 30.2925ZM11.6445 50.3115H9.15723V48.1123H11.6445V50.3115ZM55.0225 50.3115H52.5352V48.1123H55.0225V50.3115ZM56.0443 46.1123C54.7122 46.1107 15.1742 46.1134 12.6663 46.1123C11.2656 46.1114 7.37608 46.1128 5.99999 46.1123V37.8466H58V46.1123L56.0443 46.1123Z" fill="#303036"/>
</svg>
