<svg width="72" height="100" viewBox="0 0 72 100" fill="none" xmlns="http://www.w3.org/2000/svg">
<path d="M61.5855 90.3393C61.3668 88.7749 61.1481 87.7858 61.096 86.7765C60.7524 80.3473 61.4085 73.9182 60.9711 67.4789C60.8044 65.0062 59.6484 62.4325 61.0127 59.9396C61.0752 59.8184 60.8878 59.5964 60.8565 59.4046C60.6274 57.9412 60.2733 56.4676 60.2108 54.984C60.1171 52.5919 60.3254 50.1798 60.2004 47.7777C60.0026 43.8717 59.3048 39.9759 60.2212 36.0598C60.367 35.4543 60.2108 34.778 60.1379 34.1321C60.065 33.3045 59.8463 32.487 59.8463 31.6694C59.8567 29.0453 60.065 26.4111 59.9609 23.797C59.763 18.9524 59.3985 14.118 59.0965 9.02107C55.5453 8.77884 51.7546 8.4054 47.9639 8.32466C44.3189 8.25401 40.6636 8.43568 37.0187 8.60726C34.0194 8.75865 31.0097 7.63834 28.0313 8.71828C27.7813 8.80911 27.4481 8.65773 27.1565 8.64764C22.5534 8.58708 17.947 8.53325 13.337 8.48615C12.2123 8.47605 11.0875 8.48615 9.65039 8.48615C9.78577 10.7974 9.92121 12.7352 10.0253 14.6832C10.2024 18.2157 10.4106 21.7381 10.5044 25.2706C10.5773 28.137 10.546 31.0134 10.4835 33.8798C10.4523 35.2928 9.79618 36.8471 10.2232 38.0683C11.1396 40.6925 10.369 43.2762 10.5773 45.8701C10.8064 48.8172 10.244 51.8148 10.2857 54.7922C10.3482 58.8697 10.7335 62.9472 10.8272 67.0247C10.9105 70.4361 10.6918 73.8576 10.7439 77.269C10.7855 80.1556 11.0251 83.0421 11.1813 85.9287C11.2646 87.5536 11.3687 89.1887 11.4937 91.1669C17.513 91.1669 23.1783 91.2174 28.8436 91.1467C32.6135 91.1063 36.3834 90.8338 40.1429 90.7934C46.4642 90.743 52.7752 90.8036 59.0861 90.7733C59.888 90.7733 60.6898 90.5007 61.5855 90.3393Z" fill="#FEFEFE"/>
<path fill-rule="evenodd" clip-rule="evenodd" d="M0.746133 65.1478C0.537852 64.3505 0.0275866 63.4522 0.121313 62.6145C0.256697 61.4336 0.0588085 60.2931 0.100465 59.1728C0.183778 57.0533 0.0692531 54.9439 0.131738 52.8345C0.173394 51.0884 0.131727 49.3424 0.121313 47.5963C0.100485 46.2439 -0.274412 44.8511 0.652442 43.5995C0.819068 43.3775 0.839883 42.8931 0.7045 42.6407C-0.201526 40.8442 0.444145 39.0275 0.50663 37.2108C0.600357 34.5261 0.558685 31.8313 0.621169 29.1466C0.641998 28.1272 0.850269 27.1179 0.871097 26.1086C0.912754 24.4332 0.766957 22.7477 0.871097 21.0824C1.18352 16.157 0.610763 11.2015 1.73548 6.3266C1.96459 5.34759 1.79798 4.28785 1.8813 3.26847C1.99585 1.68389 2.83938 0.755343 4.53688 0.634229C5.41166 0.573672 6.29683 0.392004 7.17161 0.402097C15.5445 0.41219 23.9175 0.503018 32.3008 0.472739C37.8724 0.452554 43.4439 0.230512 49.0154 0.19014C53.7851 0.149769 58.5548 0.230509 63.3244 0.250695C63.5952 0.257424 63.859 0.230507 64.1159 0.16995C66.0737 -0.25395 67.7087 0.0690328 69.0938 1.66371C70.281 3.03633 70.8434 4.39887 70.9371 6.26605C71.0934 9.31409 70.6872 12.3823 71.4474 15.4203C71.6974 16.4396 71.187 17.6407 70.9788 19.1344C72.1035 19.8309 71.5411 21.3549 71.614 22.7477C71.6696 23.831 71.7355 24.9143 71.8119 25.9976C71.8327 26.1692 71.9577 26.3508 71.9161 26.5022C71.0725 29.2979 72.3222 32.1341 71.6973 34.9702C71.437 36.1409 71.7911 37.4429 71.8744 38.6843C71.8952 39.1082 72.0618 39.5624 71.9577 39.9661C71.0204 43.6601 72.3951 47.3642 71.7807 51.1187C71.4058 53.43 71.8327 55.8927 71.5203 58.3149C71.3016 59.95 71.9056 61.6658 71.9785 63.3614C72.0306 64.6432 71.7494 65.9351 71.739 67.2269C71.739 68.4885 71.9473 69.7602 71.9785 71.0319C72.0063 72.3776 71.9889 73.7234 71.9264 75.0691C71.9056 75.5535 71.9369 76.2499 71.6349 76.4922C70.9059 77.0877 71.1766 77.5822 71.3432 78.2887C71.5203 79.0255 71.312 79.8531 71.2808 80.388C71.5515 82.1139 72.0202 83.6581 71.9993 85.1922C71.9473 88.5128 71.6557 91.8333 71.4578 95.164C71.437 95.4062 71.3641 95.8301 71.2391 95.8604C69.7395 96.1733 69.6979 97.6771 68.9897 98.5855C68.1878 99.6149 67.3755 100.029 66.1258 99.9985C61.6408 99.8908 57.1523 99.8067 52.6604 99.7461C51.9001 99.736 51.1399 99.9177 50.3693 99.9076C45.3705 99.9076 40.3613 99.9581 35.3521 99.837C31.5406 99.7461 27.7395 100.13 23.9279 99.9076C23.8446 99.8975 23.7509 99.9581 23.6676 99.9379C20.585 99.3525 17.492 99.4232 14.3574 99.5745C11.2644 99.7159 8.16099 99.5645 5.06801 99.4938C2.69359 99.4434 0.0484046 96.6375 0.110889 94.2657C0.21503 90.2185 0.392034 86.1813 0.464933 82.1442C0.475347 81.0542 0.0483919 79.944 0.162947 78.8741C0.496198 75.4223 -0.159885 71.9807 0.0379829 68.539C0.100467 67.3884 0.506609 66.258 0.746133 65.1478ZM59.2004 86.6052C59.0026 85.1822 58.8047 84.2839 58.7526 83.3755C58.4402 77.5317 59.0338 71.6981 58.6381 65.8442C58.4819 63.6036 57.4404 61.2722 58.6693 59.0013C58.7318 58.8902 58.5652 58.6884 58.5339 58.5168C58.3256 57.1845 58.0028 55.8422 57.9507 54.4999C57.857 52.3299 58.0549 50.1397 57.9403 47.9597C57.7633 44.407 57.128 40.8745 57.9612 37.3218C58.0861 36.7667 57.9403 36.151 57.8882 35.5656C57.8153 34.8188 57.6175 34.0719 57.6175 33.325C57.6279 30.9431 57.8154 28.5612 57.7216 26.1793C57.5446 21.7889 57.2113 17.3884 56.9302 12.7558C53.7122 12.5438 50.2756 12.2006 46.8285 12.13C43.5168 12.0593 40.2051 12.2309 36.8935 12.3924C34.165 12.5236 31.4365 11.5042 28.7288 12.4833C28.4997 12.564 28.1977 12.4328 27.9373 12.4227C23.7508 12.3689 19.5679 12.3184 15.3883 12.2713C14.3678 12.2612 13.3472 12.2713 12.035 12.2713C12.16 14.3706 12.2849 16.1369 12.3787 17.9031C12.5349 21.1126 12.7224 24.3121 12.8057 27.5216C12.8786 30.1256 12.8473 32.7295 12.7952 35.3436C12.764 36.6153 12.1704 38.0283 12.5557 39.1385C13.3889 41.5204 12.6911 43.8721 12.8786 46.2237C13.0869 48.8983 12.5766 51.6234 12.6182 54.3283C12.6703 58.0323 13.0243 61.7263 13.1077 65.4405C13.1806 68.539 12.9827 71.6375 13.0347 74.736C13.0764 77.3602 13.2847 79.9742 13.4305 82.5984C13.5034 84.082 13.6075 85.5556 13.7117 87.3521C19.1791 87.3521 24.3237 87.4026 29.4682 87.342C32.884 87.3016 36.3102 87.0493 39.7261 87.0191C45.4642 86.9686 51.192 87.0291 56.9302 86.9988C57.6592 86.9988 58.3881 86.7465 59.2004 86.6052Z" fill="#E9CE1C"/>
<path d="M54.8161 64.4714C54.8161 65.3596 54.8161 66.0156 54.8161 66.8432C52.6708 67.1763 50.5984 67.58 48.5051 67.8122C43.1419 68.3976 37.7683 68.8618 32.405 69.4573C29.2495 69.8004 26.1253 70.3657 22.9698 70.7088C21.5952 70.8602 20.1789 70.7492 18.7938 70.5978C18.4085 70.5574 17.8253 70.0023 17.8044 69.6491C17.7732 69.2554 18.1793 68.6902 18.5646 68.448C19.0541 68.125 19.6998 67.9837 20.2934 67.8929C25.0006 67.2369 29.7078 66.5102 34.4253 66.0055C40.226 65.3899 46.037 64.966 51.8481 64.4815C52.7854 64.4109 53.7434 64.4714 54.8161 64.4714Z" fill="#5CA3A5"/>
<path d="M28.4368 77.9557C26.222 77.8548 24.0108 77.7538 21.803 77.6529C21.5427 77.6428 21.2511 77.663 21.0115 77.5823C20.043 77.2391 18.6996 77.118 18.8245 75.7555C18.9391 74.4636 20.2513 74.625 21.1365 74.5847C24.3128 74.4535 27.4995 74.4434 30.6862 74.3727C31.5506 74.3525 32.4149 74.2617 33.2793 74.2011C39.7221 73.7301 46.165 73.2692 52.6078 72.8184C53.6284 72.7478 55.1072 72.3945 55.2322 73.7571C55.3572 75.271 53.8784 74.8673 52.8682 74.9177C51.983 74.9682 51.0874 75.0691 50.2542 75.3013C44.162 77.017 37.8824 77.3501 31.6235 77.7538C30.5613 77.8245 29.499 77.7639 28.4368 77.7639C28.4368 77.8312 28.4368 77.8951 28.4368 77.9557Z" fill="#5CA3A5"/>
<path d="M40.7892 35.3438C34.8844 35.6163 28.99 35.9191 23.0852 36.1411C21.7834 36.1916 20.4504 36.0301 19.1591 35.808C18.7842 35.7374 18.3676 35.1722 18.2635 34.7685C18.201 34.5363 18.6696 34.0216 19.0133 33.8904C19.6589 33.6381 20.3671 33.4867 21.0649 33.416C30.6771 32.4572 40.3205 32.2655 49.964 32.2957C50.0542 32.289 50.1445 32.2856 50.2347 32.2856C51.2657 32.2957 52.3384 32.437 52.2967 33.6986C52.255 34.7786 51.2761 34.9401 50.3284 34.9905C47.1487 35.1655 43.9724 35.3471 40.7996 35.5355C40.7926 35.4683 40.7892 35.4043 40.7892 35.3438Z" fill="#5CA3A5"/>
<path d="M53.0562 48.5249C52.0877 48.8277 51.3275 49.2012 50.536 49.292C47.6305 49.6251 44.725 49.8774 41.8194 50.1499C35.5571 50.7353 29.2983 51.3038 23.0429 51.8556C22.1577 51.9363 21.2308 51.9767 20.3977 51.7849C19.929 51.684 19.2938 51.0582 19.2833 50.6444C19.2729 50.2508 19.877 49.6149 20.3456 49.4636C21.262 49.181 22.2618 49.1305 23.2303 49.0397C32.124 48.2928 41.028 47.5762 49.9216 46.8091C51.1505 46.7082 52.2231 46.7385 53.0562 48.5249Z" fill="#5CA3A5"/>
<path d="M49.9632 41.7223C49.1717 41.9342 48.3803 42.2976 47.568 42.348C45.2664 42.5095 42.9545 42.4793 40.653 42.6407C35.1752 43.0344 29.6974 43.5087 24.2092 43.9023C22.7026 44.01 21.1995 44.0201 19.6998 43.9326C19.3145 43.9124 18.7105 43.3573 18.6793 43.0041C18.648 42.6306 19.0958 42.1159 19.4707 41.8333C19.7935 41.6012 20.3039 41.5507 20.7308 41.5103C29.6349 40.6221 38.539 39.633 47.5159 40.2588C48.3282 40.3194 49.1197 40.6423 49.9216 40.8341C49.9354 41.1302 49.9493 41.4262 49.9632 41.7223Z" fill="#5CA3A5"/>
<path d="M31.8222 20.4565C33.0823 22.0108 33.3739 23.6661 33.6238 25.3314C33.7384 26.0984 33.728 27.0573 32.7282 27.138C32.0513 27.1986 31.1244 26.8453 30.6766 26.3709C29.302 24.8873 29.8539 21.9806 31.8222 20.4565Z" fill="#5CA3A5"/>
<path d="M44.1837 20.9209C46.3811 22.3945 46.9017 24.0699 45.8395 25.8967C45.1938 27.0069 44.2357 27.1179 43.3193 26.1894C41.7155 24.5644 41.9759 22.7376 44.1837 20.9209Z" fill="#5CA3A5"/>
<path d="M25.0633 20.8403C25.8964 22.7479 26.1672 24.5949 25.9277 26.4721C25.7715 27.6732 24.678 27.9659 23.7928 27.1181C22.4806 25.8464 23.043 24.2214 23.0222 22.7176C23.0118 21.5569 23.647 21.0119 25.0633 20.8403Z" fill="#5CA3A5"/>
<path d="M38.4144 20.9414C39.862 22.9196 40.4556 24.7767 39.4975 27.0072C37.9354 27.1283 37.1023 26.3714 36.9044 25.2107C36.6545 23.7472 36.1962 22.1021 38.4144 20.9414Z" fill="#5CA3A5"/>
<path d="M34.009 60.5562C33.7694 60.8085 33.332 61.6765 32.6968 61.8481C31.5616 62.1408 30.4265 60.6672 30.4994 59.2138C30.5515 58.255 30.7285 57.2659 31.9782 57.1347C33.0092 57.0337 34.0298 58.5376 34.009 60.5562Z" fill="#5CA3A5"/>
<path d="M20.5945 62.6045C17.7515 60.8988 17.6578 60.3336 19.7614 57.8003C22.115 59.0922 22.4691 61.1511 20.5945 62.6045Z" fill="#5CA3A5"/>
<path d="M37.4463 56.8315C38.1128 58.0124 38.7689 58.9712 39.2063 60.0209C39.5187 60.7879 39.1959 61.6156 38.3107 61.8477C37.4359 62.0798 36.4778 61.9385 36.2695 60.8586C36.0195 59.597 35.4155 58.2042 37.4463 56.8315Z" fill="#5CA3A5"/>
<path d="M26.1972 56.9121C26.6866 57.5076 27.3844 58.0021 27.5198 58.6077C27.7385 59.5766 27.7489 60.6566 27.5198 61.6154C27.3219 62.4329 25.9889 62.3118 25.3641 61.4741C24.3851 60.1822 24.583 58.7288 26.1972 56.9121Z" fill="#5CA3A5"/>
<path d="M51.1818 25.6144C50.2966 25.6144 49.1511 24.4537 49.1407 23.5454C49.1303 22.6067 50.1925 21.4763 51.1089 21.446C52.1503 21.4057 52.7543 22.0819 52.796 23.3233C52.8481 24.5748 52.1191 25.6043 51.1818 25.6144Z" fill="#5CA3A5"/>
<path d="M49.9625 60.7472C47.8797 59.2333 47.9006 57.9111 49.9001 56.1045C51.5663 57.8203 51.5871 58.4561 49.9625 60.7472Z" fill="#5CA3A5"/>
<path d="M18.2212 22.2935C18.7523 23.4642 19.2938 24.2818 19.4605 25.1699C19.5646 25.6948 19.2521 26.593 18.8252 26.8554C18.0024 27.35 17.336 26.7848 16.9715 25.9774C16.3466 24.5845 16.8778 23.5248 18.2212 22.2935Z" fill="#5CA3A5"/>
<path d="M42.3513 57.104C43.247 57.1343 44.0905 58.3252 43.8926 59.5061C43.8093 59.9401 43.247 60.5558 42.8096 60.6365C41.9035 60.8081 41.1225 59.8493 41.1329 58.7592C41.1433 57.9215 41.4037 57.2453 42.3513 57.104Z" fill="#5CA3A5"/>
</svg>
