<svg width="180" height="100" viewBox="0 0 180 100" fill="none" xmlns="http://www.w3.org/2000/svg">
<path d="M124.909 2.3122C129.522 0.459603 133.762 0.721165 137.97 0.764756C139.723 0.786551 140.282 1.22246 140.501 2.97697C140.753 4.96035 140.775 6.97641 140.797 8.97068C140.906 19.97 141.005 30.9694 141.092 41.9687C141.151 48.0641 141.206 54.1632 141.257 60.2659C141.279 62.7178 140.687 63.4807 138.276 64.0582C137.477 64.2435 136.644 64.4179 135.833 64.3961C133.371 64.3234 130.91 64.1963 128.448 64.0146C125.819 63.8294 124.876 62.7941 124.843 60.2331C124.712 50.5016 124.558 40.7591 124.46 31.0166C124.383 23.6498 124.328 16.2721 124.361 8.90529C124.372 6.66038 124.723 4.41545 124.909 2.3122Z" fill="#5CA3A5"/>
<path d="M95.0064 54.4465C95.1233 40.6283 95.2256 26.8101 95.3132 12.9919C95.3424 9.98417 95.2986 6.98003 95.1817 3.97955C95.1269 2.61734 95.3899 1.75643 96.8581 1.32052C100.518 0.241655 104.243 0.154487 108.001 0.448723C109.393 0.5577 109.382 1.72376 109.469 2.70454C109.864 7.23796 110.39 11.7605 110.565 16.2939C110.905 25.1973 111.069 34.1006 111.223 43.004C111.299 47.363 111.135 51.733 111.157 56.0921C111.157 57.9011 111.453 59.721 111.431 61.53C111.398 63.873 110.773 64.7557 108.461 65.039C105.098 65.4313 101.712 65.6711 98.3373 65.6711C95.8391 65.682 94.7982 64.3525 94.7763 61.8133C94.7617 59.3577 94.7581 56.9021 94.7654 54.4465C94.8457 54.4465 94.926 54.4465 95.0064 54.4465Z" fill="#5CA3A5"/>
<path d="M109.449 52.2778C109.668 45.4123 109.909 40.2577 109.964 35.1032C110.007 29.8505 109.81 24.5978 109.81 19.3452C109.81 15.4329 109.996 11.5098 110.018 7.59752C110.029 6.05006 109.865 4.51349 109.755 2.96602C109.635 1.2442 109.942 0.71023 111.782 0.394198C113.382 0.110859 115.037 0.0236611 116.669 0.00186581C118.137 -0.0199295 119.595 0.154445 121.063 0.252523C124.843 0.524964 125.467 1.04805 125.522 4.88402C125.588 9.88604 125.402 14.888 125.38 19.8901C125.347 26.8863 125.402 33.8826 125.336 40.8789C125.303 45.4123 125.106 49.9457 125.029 54.4792C124.996 56.1138 125.117 57.7484 125.15 59.3831C125.172 60.2985 125.215 61.2139 125.117 62.1075C124.909 63.8729 124.306 64.6467 122.542 64.7447C119.353 64.93 116.143 65.039 112.966 64.8428C110.281 64.6903 109.481 63.6005 109.459 60.9524C109.427 57.4869 109.449 54.0324 109.449 52.2778Z" fill="#DCB725"/>
<path d="M140.172 52.2778C140.38 45.4123 140.632 40.2577 140.676 35.1032C140.72 29.8505 140.522 24.5978 140.522 19.3452C140.522 15.4329 140.709 11.5098 140.742 7.59752C140.753 6.05006 140.577 4.51349 140.468 2.96602C140.358 1.2442 140.654 0.71023 142.495 0.394198C144.105 0.110859 145.749 0.0236611 147.392 0.00186581C148.85 -0.0199295 150.318 0.154445 151.775 0.252523C155.555 0.524964 156.191 1.04805 156.234 4.88402C156.311 9.88604 156.125 14.888 156.103 19.8901C156.07 26.8863 156.114 33.8826 156.059 40.8789C156.015 45.4123 155.818 49.9457 155.741 54.4792C155.709 56.1138 155.84 57.7484 155.862 59.3831C155.884 60.2985 155.939 61.2139 155.829 62.1075C155.632 63.8729 155.018 64.6467 153.254 64.7447C150.077 64.93 146.856 65.039 143.678 64.8428C140.994 64.6903 140.194 63.6005 140.172 60.9524C140.15 57.4869 140.172 54.0324 140.172 52.2778Z" fill="#E6646A"/>
<path d="M86.2858 3.47824C86.998 3.6308 87.7541 3.6744 88.4115 3.95774C90.2413 4.75326 92.1039 5.53789 93.8351 6.54047C96.388 8.03345 96.5414 8.52385 95.5882 11.1502C94.3281 14.6483 93.1229 18.1792 91.6328 21.5792C87.8308 30.2211 83.9958 38.852 79.9528 47.3848C77.3231 52.9753 74.3319 58.4023 71.4613 63.8838C70.4204 65.8781 70.2122 65.9435 68.0537 65.4313C64.7667 64.6576 62.0822 62.7614 59.354 60.9415C58.1378 60.1242 58.1817 59.0126 58.7076 57.803C59.5732 55.7978 60.373 53.76 61.2934 51.7766C66.8594 39.9091 72.4255 28.0306 78.0792 16.2067C79.8761 12.4252 81.9688 8.78539 83.9301 5.08019C84.4341 4.15389 85.0477 3.39106 86.2858 3.47824Z" fill="#9CACB9"/>
<path d="M32.6626 83.8482C26.9322 83.8482 21.5304 83.87 16.1287 83.8373C12.8526 83.8155 9.58754 83.6738 6.31146 83.6084C2.57519 83.554 0.153698 80.4481 0.0441303 77.5603C-0.0654377 74.5743 0.022214 71.5557 0.383789 68.5915C0.701536 66.0088 3.03532 64.0581 5.64304 63.8292C7.73579 63.6331 9.86141 63.4369 11.9432 63.5895C21.2017 64.3087 30.4383 63.7312 39.6968 63.4914C47.1913 63.3061 50.9056 63.2626 58.4001 63.1863C70.858 63.0773 83.3049 63.0119 95.7628 62.8811C103.871 62.794 111.99 62.5542 120.098 62.5542C126.957 62.5433 133.816 62.9356 140.675 62.8593C145.32 62.8048 149.955 62.1837 154.612 61.9548C160.704 61.6606 166.796 61.5298 172.888 61.301C178.673 61.083 180.306 65.2241 179.955 69.1037C179.648 72.5146 179.571 75.9583 179.221 79.3584C178.925 82.2244 177.994 82.9655 175.2 83.1072C170.072 83.3905 164.955 83.7392 159.827 83.9136C157.373 84.0008 154.908 83.7501 152.453 83.6629C152.19 83.6629 151.916 83.7501 151.577 83.8046C151.434 87.6079 151.171 91.3894 151.16 95.1599C151.16 98.5164 149.878 100.271 145.879 99.9658C144.685 99.8677 143.491 99.7805 142.307 99.8241C140.445 99.8895 139.13 99.0722 138.275 97.5029C137.278 95.6612 136.292 93.8086 135.415 91.9016C134.134 89.09 132.961 86.2239 131.603 83.0636C130.025 83.0309 128.425 83.0309 126.825 82.9764C120.726 82.7512 114.627 82.515 108.527 82.268C107.344 82.2135 106.15 82.0174 104.967 82.0283C94.8972 82.1481 84.8279 82.3879 74.7476 82.4097C66.6286 82.4206 62.3336 82.8565 54.2475 83.445C52.845 83.5431 52.1876 83.979 51.6288 85.2431C50.1934 88.4906 48.528 91.64 47.0379 94.8657C46.238 96.5875 45.2191 97.6446 43.0935 97.5574C40.9131 97.4811 38.7107 97.8081 36.5194 97.8517C34.6786 97.8844 34.0102 97.3504 33.7911 95.5087C33.4295 92.5227 33.2214 89.5259 32.9365 86.529C32.8707 85.7335 32.7721 84.938 32.6626 83.8482Z" fill="#315369"/>
</svg>
