<svg width="24" height="24" viewBox="0 0 24 24" fill="none" xmlns="http://www.w3.org/2000/svg">
<path fill-rule="evenodd" clip-rule="evenodd" d="M6.04798 1.58496C4.86435 1.58496 3.72918 2.05504 2.89206 2.89183C2.05495 3.72862 1.58444 4.86362 1.58398 6.04725V17.9512C1.58398 19.1351 2.05429 20.2706 2.89146 21.1077C3.72862 21.9449 4.86406 22.4152 6.04798 22.4152H17.952C19.1356 22.4148 20.2706 21.9442 21.1074 21.1071C21.9442 20.27 22.4143 19.1348 22.4143 17.9512V6.04725C22.4138 4.86391 21.9436 3.72918 21.1068 2.89244C20.2701 2.05569 19.1353 1.58542 17.952 1.58496H6.04798ZM19.236 6.0541C19.236 6.3951 19.1006 6.72212 18.8594 6.96324C18.6183 7.20436 18.2913 7.33982 17.9503 7.33982C17.6093 7.33982 17.2823 7.20436 17.0412 6.96324C16.8 6.72212 16.6646 6.3951 16.6646 6.0541C16.6646 5.71311 16.8 5.38608 17.0412 5.14497C17.2823 4.90385 17.6093 4.76839 17.9503 4.76839C18.2913 4.76839 18.6183 4.90385 18.8594 5.14497C19.1006 5.38608 19.236 5.71311 19.236 6.0541ZM12.0017 8.43353C11.056 8.43353 10.1491 8.8092 9.48036 9.47791C8.81166 10.1466 8.43598 11.0535 8.43598 11.9992C8.43598 12.9449 8.81166 13.8518 9.48036 14.5205C10.1491 15.1892 11.056 15.5649 12.0017 15.5649C12.9474 15.5649 13.8544 15.1892 14.5231 14.5205C15.1918 13.8518 15.5674 12.9449 15.5674 11.9992C15.5674 11.0535 15.1918 10.1466 14.5231 9.47791C13.8544 8.8092 12.9474 8.43353 12.0017 8.43353ZM6.71998 11.9992C6.71998 10.5989 7.27627 9.25592 8.26646 8.26572C9.25665 7.27553 10.5997 6.71925 12 6.71925C13.4004 6.71925 14.7433 7.27553 15.7335 8.26572C16.7237 9.25592 17.28 10.5989 17.28 11.9992C17.28 13.3995 16.7237 14.7425 15.7335 15.7327C14.7433 16.7229 13.4004 17.2792 12 17.2792C10.5997 17.2792 9.25665 16.7229 8.26646 15.7327C7.27627 14.7425 6.71998 13.3995 6.71998 11.9992Z" fill="#303036"/>
</svg>
