<svg width="32" height="32" viewBox="0 0 32 32" fill="none" xmlns="http://www.w3.org/2000/svg">
<path d="M24.4841 4.7709C22.216 2.55736 19.1693 1.323 16.0001 1.33356C12.8308 1.323 9.7842 2.55736 7.51607 4.7709C6.40454 5.84795 5.52059 7.13723 4.91663 8.56228C4.31267 9.98733 4.00099 11.5191 4.00007 13.0669C3.98895 16.3412 5.24952 19.4919 7.51607 21.8549L16.0001 30.6669L24.4841 21.8549C26.7506 19.4919 28.0112 16.3412 28.0001 13.0669C27.9992 11.5191 27.6875 9.98733 27.0835 8.56228C26.4796 7.13723 25.5956 5.84795 24.4841 4.7709ZM16.0001 17.3336C13.7854 17.3336 12.0001 15.5469 12.0001 13.3322C11.9994 12.8068 12.1024 12.2864 12.3032 11.8009C12.5039 11.3153 12.7986 10.8742 13.1702 10.5027C13.5418 10.1312 13.983 9.83675 14.4686 9.63613C14.9542 9.4355 15.4747 9.33269 16.0001 9.33356C18.2147 9.33356 20.0001 11.1202 20.0001 13.3322C20.0009 13.8578 19.8981 14.3784 19.6974 14.8642C19.4967 15.35 19.2021 15.7914 18.8305 16.1631C18.4589 16.5348 18.0177 16.8295 17.5319 17.0304C17.0462 17.2312 16.5257 17.3343 16.0001 17.3336Z" fill="#303036"/>
</svg>
