<svg width="32" height="32" viewBox="0 0 32 32" fill="none" xmlns="http://www.w3.org/2000/svg">
<path d="M16.0007 1.97412C12.2819 1.97783 8.71647 3.45675 6.08689 6.08633C3.4573 8.71592 1.97838 12.2813 1.97467 16.0001C1.96909 17.8431 2.32951 19.6687 3.03505 21.3713C3.74058 23.0738 4.77716 24.6193 6.08467 25.9181C7.38339 27.225 8.92864 28.2611 10.6308 28.9663C12.333 29.6715 14.1582 30.0317 16.0007 30.0261C23.7347 30.0261 30.0267 23.7341 30.0267 15.9981C30.0267 8.26212 23.7367 1.97412 16.0007 1.97412ZM8.51667 25.4061C9.41013 24.3575 10.5166 23.511 11.7625 22.9231C13.0084 22.3351 14.3652 22.0191 15.7427 21.9961C15.7907 21.9981 15.8367 22.0101 15.8847 22.0101H15.9307C15.9747 22.0101 16.0147 21.9981 16.0587 21.9961C17.4539 22.0209 18.8272 22.3468 20.0847 22.9516C21.3423 23.5564 22.4543 24.4257 23.3447 25.5001C21.2466 27.137 18.6618 28.026 16.0007 28.0261C13.2802 28.0318 10.6396 27.1073 8.51667 25.4061ZM11.9087 15.9881C11.9087 13.7941 13.6927 12.0121 15.9327 12.0121C18.1267 12.0121 19.9087 13.7961 19.9087 16.0361C19.9066 17.0669 19.5041 18.0565 18.7861 18.7961C18.0682 19.5357 17.0909 19.9674 16.0607 20.0001C16.0027 20.0001 15.9487 19.9901 15.8907 19.9901C15.8407 19.9901 15.7927 19.9981 15.7427 20.0001C14.7079 19.9597 13.7294 19.5185 13.014 18.7698C12.2985 18.0211 11.9022 17.0237 11.9087 15.9881Z" fill="#303036"/>
</svg>
