<svg width="48" height="48" viewBox="0 0 48 48" fill="none" xmlns="http://www.w3.org/2000/svg">
<path d="M23 16H16C15.4696 16 14.9609 16.2107 14.5858 16.5858C14.2107 16.9609 14 17.4696 14 18V32C14 32.5304 14.2107 33.0391 14.5858 33.4142C14.9609 33.7893 15.4696 34 16 34H30C30.5304 34 31.0391 33.7893 31.4142 33.4142C31.7893 33.0391 32 32.5304 32 32V25" stroke="#B8B8C1" stroke-width="2" stroke-linecap="round" stroke-linejoin="round"/>
<path d="M30.5 14.5002C30.8978 14.1024 31.4374 13.8789 32 13.8789C32.5626 13.8789 33.1022 14.1024 33.5 14.5002C33.8978 14.8981 34.1213 15.4376 34.1213 16.0002C34.1213 16.5628 33.8978 17.1024 33.5 17.5002L24 27.0002L20 28.0002L21 24.0002L30.5 14.5002Z" stroke="#B8B8C1" stroke-width="2" stroke-linecap="round" stroke-linejoin="round"/>
</svg>
