<svg width="24" height="24" viewBox="0 0 24 24" fill="none" xmlns="http://www.w3.org/2000/svg">
<path d="M19.6562 2H4.34375C3.04933 2 2 3.04933 2 4.34375V19.6562C2 20.9507 3.04933 22 4.34375 22H19.6562C20.9507 22 22 20.9507 22 19.6562V4.34375C22 3.04933 20.9507 2 19.6562 2Z" fill="#303036"/>
<path d="M15.9019 5.90625H17.9694L13.4526 11.0688L18.7663 18.0938H14.6057L11.3469 13.8331L7.61818 18.0938H5.54945L10.3807 12.5719L5.2832 5.90625H9.54943L12.4951 9.80062L15.9019 5.90625ZM15.1763 16.8563H16.3219L8.92693 7.07875H7.69756L15.1763 16.8563Z" fill="#E6EBF9"/>
</svg>
