<svg width="24" height="24" viewBox="0 0 24 24" fill="none" xmlns="http://www.w3.org/2000/svg">
<path fill-rule="evenodd" clip-rule="evenodd" d="M12 3C12.9405 3 13.9052 3.02612 14.8402 3.06887L15.9446 3.12587L17.0017 3.19356L17.9917 3.266L18.8959 3.342C19.8769 3.42262 20.8009 3.87451 21.504 4.61809C22.2071 5.36166 22.6443 6.34922 22.7397 7.40681L22.7837 7.9115L22.8662 8.99213C22.9432 10.1119 23 11.3326 23 12.5C23 13.6674 22.9432 14.8881 22.8662 16.0079L22.7837 17.0885L22.7397 17.5931C22.6443 18.651 22.2071 19.6387 21.5031 20.3822C20.8 21.1259 19.876 21.5776 18.8948 21.658L17.9928 21.7329L17.0028 21.8064L15.9446 21.8741L14.8402 21.9311C13.894 21.9754 12.9471 21.9983 12 22C11.0529 21.9983 10.106 21.9754 9.1598 21.9311L8.0554 21.8741L6.9983 21.8064L6.0083 21.7329L5.1041 21.658C4.12272 21.5773 3.19909 21.1255 2.49609 20.3819C1.79301 19.6383 1.35548 18.6508 1.2607 17.5931L1.2167 17.0885L1.1342 16.0079C1.05042 14.8407 1.00568 13.6707 1 12.5C1 11.3326 1.0572 10.1119 1.1342 8.99213L1.2167 7.9115L1.2607 7.40681C1.35548 6.34941 1.79282 5.362 2.49563 4.61845C3.19844 3.8749 4.1218 3.42289 5.103 3.342L6.0061 3.266L6.9961 3.19356L8.0543 3.12587L9.1587 3.06887C10.1052 3.02461 11.0525 3.00165 12 3ZM9.8 9.62031V15.3796C9.8 15.9284 10.35 16.2704 10.79 15.9971L15.41 13.1175C15.5106 13.055 15.5941 12.965 15.6521 12.8566C15.7102 12.7482 15.7407 12.6252 15.7407 12.5C15.7407 12.3748 15.7102 12.2518 15.6521 12.1434C15.5941 12.035 15.5106 11.945 15.41 11.8825L10.79 9.004C10.6896 8.94144 10.5758 8.90852 10.4599 8.90854C10.344 8.90856 10.2302 8.94153 10.1298 9.00411C10.0294 9.0667 9.94611 9.15671 9.88827 9.26509C9.83034 9.37346 9.79991 9.49639 9.8 9.6215V9.62031Z" fill="#303036"/>
</svg>
