<svg width="200" height="144" viewBox="0 0 200 144" fill="none" xmlns="http://www.w3.org/2000/svg">
<path d="M47.8509 111.948C43.0328 111.657 40.0319 109.667 37.8479 106.41C36.7392 104.77 35.839 102.988 36.064 100.881C36.1891 99.7482 36.1057 98.5656 36.3891 97.483C36.5392 96.925 37.2394 96.442 37.7979 96.0923C38.3147 95.7675 38.9649 95.5093 39.5651 95.4843C41.0155 95.4177 42.0242 94.4434 43.2412 93.9104C43.9664 93.5856 47.9759 92.5197 48.9596 92.6113C50.0016 92.7029 50.8518 93.1109 51.7938 93.4774C53.3943 94.0936 54.4529 95.7675 56.3368 95.7092C57.0203 96.6003 58.0456 97.4081 58.3124 98.4074C58.8459 100.373 58.7792 102.421 57.7872 104.337C57.4121 105.061 57.2704 105.911 56.887 106.635C55.8867 108.559 54.3445 109.966 52.4273 110.949C50.7518 111.815 49.0096 112.465 47.8509 111.948Z" fill="#E9CD16"/>
<path d="M45.7003 60.5662C44.4082 60.0998 43.9831 59.1338 43.933 58.0845C43.7219 53.2155 43.5552 48.3466 43.4329 43.4776C43.3496 40.5129 43.2162 37.5482 43.3912 34.5919C43.5246 32.385 43.0745 30.2198 43.3162 27.988C43.5579 25.8394 43.2245 23.6409 43.2495 21.459C43.2995 17.3951 43.4329 13.3311 43.5246 9.26718C43.5329 8.82581 43.4662 8.37611 43.4162 7.73487C42.7327 7.73487 42.1158 7.69323 41.5073 7.7432C38.9482 7.93473 38.3647 7.37678 38.3064 4.87845C38.2813 3.62096 38.0563 2.36346 37.9062 0.981057C42.2409 -0.226468 46.4421 -0.151518 50.7184 0.314837C51.0435 1.81383 51.3603 3.12129 51.5937 4.4454C51.8688 5.96938 51.1019 7.03534 49.5681 7.32681C49.1263 7.41009 48.6678 7.35179 48.226 7.42674C47.7926 7.50169 47.3674 7.65159 46.7923 7.80982C46.7923 10.2748 46.8423 12.7232 46.7756 15.1632C46.7172 17.5366 46.5005 19.9101 46.4338 22.2918C46.4171 23.1079 46.7256 23.924 46.7339 24.7485C46.7589 28.9873 46.8839 33.2428 46.7089 37.4816C46.5172 42.0785 46.6172 46.6588 46.6589 51.2557C46.6755 53.5459 46.6839 55.8443 46.7339 58.1345C46.7589 59.0922 46.5839 59.9166 45.7003 60.5662Z" fill="#315369"/>
<path d="M56.2875 51.8803C58.5632 51.9969 60.6888 52.2217 62.8061 52.1884C67.4825 52.1218 72.1589 51.8886 76.8437 51.7887C78.7859 51.747 80.7365 51.9053 82.6871 51.9302C83.1956 51.9302 83.7041 51.8053 84.2126 51.7304C85.6963 51.4805 87.1384 51.772 88.2471 52.6797C88.8389 53.1711 89.1807 54.212 89.2641 55.0365C89.6308 59.0893 89.931 63.145 90.1644 67.2034C90.2811 69.0521 90.131 70.9259 90.2477 72.7829C90.3977 75.223 90.7145 77.6547 90.9229 80.1031C91.0229 81.3078 91.0841 82.5153 91.1063 83.7256C91.1646 87.14 90.8729 90.5461 90.3477 93.9105C90.2477 94.5434 89.7309 95.1513 89.2891 95.6843C88.7639 96.3172 88.1721 96.9251 87.5135 97.4248C87.0717 97.7496 86.4882 98.0244 85.9547 98.066C82.8538 98.2992 79.7529 98.4658 76.6603 98.6573C74.6875 98.7739 72.7147 98.8905 70.7418 99.0071C67.3408 99.1986 63.9482 99.4151 60.5471 99.565C57.1572 99.7149 53.7645 99.8232 50.3691 99.8898C47.6599 99.9481 44.9424 99.8981 42.225 99.8815C39.9076 99.8648 37.5819 99.8898 35.2645 99.8065C30.213 99.6233 25.1698 99.3652 20.1183 99.1736C17.3592 99.0737 14.5917 99.0987 11.8408 98.9404C10.4404 98.8572 9.065 99.0071 7.68125 99.0154C6.51424 99.0237 5.12215 98.8738 4.23022 98.2409C3.2716 97.5497 2.64641 96.2672 2.12958 95.1347C1.7378 94.2852 1.67111 93.2609 1.57108 92.3032C1.22098 88.9555 0.854208 85.6077 0.612469 82.2516C0.462424 80.0947 0.55412 77.9295 0.470761 75.7726C0.420746 74.6151 0.12899 73.4658 0.103982 72.3083C0.020624 69.277 -0.0377238 66.2457 0.0289629 63.2144C0.0706421 61.1574 0.304038 59.1088 0.529105 57.0601C0.570785 56.6687 0.887543 56.1691 1.22931 55.9692C2.04622 55.4779 2.9215 54.8783 3.8301 54.77C7.93967 54.2953 12.0659 53.9705 16.1921 53.6041C18.4428 53.3932 20.6963 53.1988 22.9525 53.0212C24.4196 52.9129 25.8951 52.8963 27.3622 52.7963C30.163 52.6048 32.9638 52.3799 35.6897 52.1801C35.6897 50.7061 35.7147 49.4569 35.6897 48.1994C35.648 46.4256 36.1064 45.826 37.9237 45.7094C41.5748 45.4679 45.2342 45.3013 48.8853 45.0931C49.7911 45.0321 50.6914 44.9405 51.5861 44.8183C53.9368 44.5102 55.3956 45.5095 55.8124 47.8413C56.0458 49.0988 56.1208 50.3729 56.2875 51.8803Z" fill="#85C0C2"/>
<path d="M165.739 133.113C165.656 135.87 165.056 138.41 163.422 140.742C162.546 141.991 161.413 142.865 160.104 143.19C157.495 143.84 154.752 144.522 152.118 143.407C148.159 141.733 144.008 138.152 144.741 132.764C145.05 130.474 146.133 128.841 147.5 127.417C148.351 126.543 149.768 126.026 151.368 126.326C152.885 126.609 154.652 126.584 156.086 126.076C159.412 124.886 164.23 126.11 165.372 130.632C165.481 131.073 165.614 131.514 165.681 131.956C165.739 132.339 165.722 132.73 165.739 133.113Z" fill="#E9CD16"/>
<path d="M153.002 97.254C151.56 97.2457 151.06 96.746 151.11 95.6884C151.202 93.8979 151.31 92.1074 151.36 90.3086C151.421 87.9991 151.455 85.6895 151.46 83.3799C151.477 81.1314 151.46 78.8829 151.41 76.6345C151.377 75.0855 151.152 73.5449 151.152 71.9959C151.152 67.9764 151.066 63.9568 150.893 59.9373C150.693 55.0073 150.468 50.0772 150.26 45.1472C150.015 39.3067 149.785 33.4689 149.568 27.6339C149.423 23.4367 149.307 19.2395 149.218 15.0424C149.159 12.6689 149.176 10.2872 149.159 7.91379C149.159 7.3475 149.159 6.78121 149.159 6.07335C148.301 6.07335 147.617 6.0567 146.934 6.08168C145.5 6.13165 144.8 5.46543 144.833 4.02472C144.842 3.5084 144.892 2.99208 144.908 2.47576C144.925 1.95944 144.908 1.44312 144.908 0.676967C145.842 0.435462 146.742 0.0107417 147.651 0.00241398C149.718 -0.0225693 151.785 0.152316 153.844 0.252249C154.036 0.260577 154.269 0.235593 154.419 0.335526C155.803 1.25158 155.286 2.76723 155.495 4.03305C155.636 4.89914 154.953 5.32386 154.211 5.46543C153.394 5.62366 152.552 5.63198 151.644 5.70693C151.544 6.10667 151.368 6.46476 151.377 6.82285C151.402 8.36349 151.385 9.90412 151.393 11.4198C151.393 12.9604 151.627 14.5843 151.694 16.1749C151.971 22.715 152.249 29.2578 152.527 35.8035C152.636 38.2185 152.794 40.6419 152.861 43.0569C152.886 43.873 152.602 44.6892 152.619 45.5053C152.636 46.0383 153.061 46.5629 153.086 47.1042C153.177 48.9447 153.161 50.7934 153.227 52.6422C153.269 53.7748 153.411 54.9073 153.477 56.0482C153.636 59.0462 153.828 62.0359 153.919 65.0339C154.011 68.2651 154.011 71.4962 154.028 74.7274C154.053 78.858 154.103 82.9802 154.053 87.1108C154.011 89.784 153.844 92.4489 153.652 95.1221C153.602 95.8383 153.227 96.5378 153.002 97.254Z" fill="#C1C1C1"/>
<path d="M143.391 80.8399C143.391 79.8489 143.374 78.9578 143.399 78.0667C143.432 76.3596 144.408 75.3019 146.058 75.4685C149.343 75.8016 152.602 75.2769 155.878 75.2936C156.853 75.3019 157.82 75.2853 158.795 75.3269C160.929 75.4102 161.905 76.3512 162.055 78.4748C162.096 79.0411 162.063 79.6157 162.063 80.3236C162.763 80.5651 163.472 80.8399 164.197 81.0398C165.756 81.4645 167.315 81.8226 168.665 82.8219C169.073 83.1217 169.799 82.9718 170.299 83.205C173.216 84.5041 176.142 85.7616 178.726 87.7186C180.502 89.0677 182.461 90.1753 184.27 91.4744C185.887 92.6403 187.504 93.8395 188.313 95.7799C188.388 95.9465 188.446 96.1963 188.588 96.2629C190.93 97.3455 191.872 99.6356 193.131 101.609C195.365 105.115 197.39 108.805 198.449 112.835C199.349 116.283 200.158 119.789 199.974 123.461C199.874 125.452 199.766 127.359 198.482 128.908C197.815 129.716 196.857 130.565 195.898 130.781C194.123 131.181 192.247 131.131 190.413 131.248C188.454 131.373 186.487 131.531 184.52 131.573C181.936 131.614 179.352 131.556 176.767 131.548C176.192 131.539 175.617 131.564 175.042 131.548C172.074 131.464 169.107 131.348 166.148 131.289C164.505 131.264 162.872 131.339 161.238 131.373C156.903 131.462 152.568 131.556 148.234 131.656C145.283 131.731 142.34 131.856 139.398 131.872C136.239 131.881 133.079 131.764 129.92 131.764C128.895 131.764 127.869 131.989 126.844 132.047C123.626 132.23 120.409 132.43 117.183 132.522C116.266 132.547 115.291 132.414 114.515 131.706C113.548 130.823 112.04 130.565 111.523 129.149C111.339 128.633 111.039 128.133 110.998 127.609C110.548 121.912 111.231 116.391 113.532 111.103C114.382 109.154 115.032 107.114 115.882 105.165C116.591 103.541 116.999 101.693 118.717 100.693C118.642 99.669 119.242 98.9111 119.767 98.1533C120.709 96.7792 121.426 95.2136 122.943 94.3142C123.101 94.2226 123.268 94.0727 123.318 93.9145C123.86 92.3405 125.202 91.4744 126.361 90.4834C127.783 89.2787 129.248 88.1267 130.754 87.0274C134.246 84.4708 137.964 82.3222 142.224 81.2729C142.532 81.198 142.832 81.0481 143.391 80.8399Z" fill="#315369"/>
</svg>
