<svg width="160" height="80" viewBox="0 0 160 80" fill="none" xmlns="http://www.w3.org/2000/svg">
<path d="M160 0.963818C159.691 4.0036 157.802 6.20768 155.715 8.20052C150.869 12.8107 145.135 16.0617 138.801 18.3117C134.984 19.6709 131.252 21.278 127.369 22.4443C123.534 23.5923 119.558 24.3178 115.638 25.227C114.6 25.4749 113.571 25.7688 112.514 25.9617C109.511 26.5127 106.508 27.0912 103.486 27.5321C100.969 27.8902 98.4248 28.0647 95.8989 28.3402C94.056 28.5423 92.2505 28.9647 90.3607 28.4137C89.762 28.2392 88.9855 28.781 88.2746 28.8178C85.2342 28.9922 82.1938 29.1667 79.144 29.2126C76.7585 29.2494 74.3823 29.1208 71.9967 29.0473C68.7879 28.9555 65.5791 28.9371 62.3797 28.7076C59.2426 28.4933 56.118 28.1504 53.0059 27.679C49.8345 27.1923 46.7006 26.4851 43.5479 25.8515C38.2062 24.7862 33.0702 23.1147 27.9904 21.2045C23.0696 19.3586 18.3827 17.0995 13.9016 14.3903C8.74699 11.277 4.28463 7.43828 0.673567 2.6628C0.449045 2.36892 0.308718 2.01994 0 1.45974C1.38455 1.46893 2.03939 2.23116 2.7878 2.80054C8.3073 7.04338 13.9016 11.1668 20.2818 14.1331C24.2484 15.9791 28.2617 17.7056 32.4341 19.0923C37.0555 20.6351 41.7237 21.9209 46.5135 22.7933C47.6267 23.0045 48.7119 23.427 49.8345 23.5647C53.5017 24.0147 57.1783 24.4923 60.8642 24.7678C66.6082 25.1902 72.3553 25.5147 78.1056 25.7412C80.304 25.8331 82.5118 25.4382 84.7103 25.4657C88.3588 25.53 91.9417 24.979 95.5528 24.7127C98.93 24.4555 102.317 24.3086 105.647 23.4821C108.21 22.8484 110.895 22.7198 113.496 22.1872C124.731 19.8913 135.63 16.6035 145.668 10.9648C149.831 8.62295 153.545 5.83114 156.043 1.65259C157.287 -0.413726 158.101 -0.42291 160 0.963818Z" fill="#315369"/>
<path d="M63.1467 43.0525C63.1467 41.0137 63.0157 38.9657 63.1841 36.9362C63.3899 34.4474 64.129 33.8596 66.6268 33.6943C71.9405 33.3362 77.2542 32.9597 82.5678 32.6474C83.9711 32.5648 85.3931 32.6842 86.8057 32.7393C87.8909 32.7852 88.3961 33.3454 88.499 34.4382C89.0884 40.4443 89.7339 46.4412 90.3419 52.4473C90.4043 53.0963 90.4355 53.7483 90.4355 54.4034C90.4448 58.7749 89.4906 59.8585 85.0937 60.5014C85.0126 60.5197 84.9316 60.5289 84.8505 60.5289C79.0878 60.2534 73.3905 60.8779 67.6746 61.5208C65.3639 61.7871 64.419 60.9422 64.1945 58.6738C63.6893 53.4759 63.3151 48.2688 62.8848 43.0617C62.9721 43.0555 63.0594 43.0525 63.1467 43.0525Z" fill="#DCB725"/>
<path d="M76.0937 57.0754C74.2726 57.2407 72.4546 57.4121 70.6397 57.5897C68.9371 57.755 67.9642 57.3233 67.7958 55.5968C67.3655 50.9775 65.9996 46.4316 66.4767 41.7295C66.6358 40.1867 67.01 39.6724 68.8342 39.4061C71.3039 39.0387 73.7924 38.8275 76.2808 38.5979C78.4325 38.3959 80.5935 38.3316 82.7359 38.0653C84.214 37.8816 84.9717 38.5796 85.3178 39.7826C85.5985 40.802 85.6546 41.8765 85.8137 42.9234C86.1504 45.1734 86.5434 47.4234 86.8147 49.6826C86.9831 51.0509 87.0579 52.456 86.9924 53.8336C86.9176 55.3856 86.1505 56.1846 84.5227 56.4233C81.7349 56.8182 78.9377 57.0846 76.1405 57.4152C76.1218 57.2989 76.1062 57.1856 76.0937 57.0754Z" fill="#FEFEFE"/>
<path d="M72.1093 21.4799C72.7735 21.287 73.0167 21.1676 73.2506 21.1676C76.5249 21.085 76.7494 21.2962 77.1236 24.437C77.529 27.7431 77.95 31.0462 78.3865 34.3462C78.5643 35.7053 77.844 36.339 75.2526 37.0278C74.0177 37.3584 73.4377 37.0921 72.9512 35.8798C72.7454 35.3563 72.5677 34.7961 72.5116 34.2451C72.1748 31.0951 71.8193 27.936 71.6228 24.7768C71.5574 23.6931 71.9315 22.5727 72.1093 21.4799Z" fill="#5CA3A5"/>
<path d="M45.3725 33.3172C44.7177 37.5876 44.0254 42.5193 41.9298 47.1294C41.013 49.1406 40.143 51.1794 39.2262 53.1906C38.1784 55.5049 37.6546 55.6427 35.2035 55.1835C28.4492 53.9253 21.8538 51.8682 14.9685 51.2345C13.0226 51.06 12.4239 49.9396 12.7233 47.9835C13.8178 40.9305 16.6524 34.3275 18.2802 27.4122C18.8695 24.9234 19.9734 24.2989 22.6677 24.4551C27.261 24.7214 31.6954 25.7775 36.0736 27.1091C38.1317 27.7336 40.2646 28.1377 42.3414 28.7254C45.1199 29.4969 45.4193 29.9377 45.3725 33.3172Z" fill="#9CACB9"/>
<path d="M33.1738 51.2344C28.7582 50.1048 24.3239 49.0212 19.9364 47.7997C18.4395 47.3773 17.8502 46.2385 18.1776 44.714C18.767 42.0049 19.4873 39.3232 20.1796 36.6324C20.5819 35.0529 21.0964 33.5008 21.4799 31.912C22.1161 29.2947 22.5371 28.7988 25.1939 29.111C28.7395 29.5335 32.257 30.1764 35.7745 30.81C36.9813 31.0304 38.1881 31.4161 39.3294 31.8845C41.2192 32.6743 41.6495 33.409 41.0508 35.3192C39.5789 39.9967 38.0447 44.6528 36.4481 49.2875C35.9523 50.7385 35.1571 51.0507 33.1738 51.2344Z" fill="#FEFEFE"/>
<path d="M33.6502 15.2534C37.5607 16.1167 37.5419 16.1167 36.7468 19.8728C36.2696 22.1779 35.8955 24.5105 35.4371 26.8248C35.2125 27.936 34.2676 28.7074 33.2479 28.7074C32.0224 28.7166 30.8811 27.9176 30.9653 26.6687C31.1898 22.8666 31.3582 19.0279 33.2667 15.5565C33.3415 15.4279 33.5193 15.3544 33.6502 15.2534Z" fill="#E6646A"/>
<path d="M153.087 39.8385C153.339 41.5925 152.535 42.1803 151.571 42.566C148.035 43.9987 144.489 45.4068 140.934 46.7905C140.167 47.0935 139.344 47.2772 138.549 47.4885C136.846 47.9476 135.92 47.5803 135.097 45.9823C134.61 45.0456 134.227 44.0446 133.862 43.0527C132.346 38.8099 130.859 34.5671 129.343 30.3242C127.725 25.7875 128.268 24.6671 132.936 23.06C136.079 21.9763 139.241 20.9386 142.394 19.8733C143.965 19.3406 144.882 19.6621 145.602 21.2049C146.117 22.3161 146.435 23.51 146.893 24.6488C148.796 29.2712 150.701 33.8906 152.609 38.5069C152.862 39.113 153.049 39.7375 153.087 39.8385Z" fill="#E6646A"/>
<path d="M138.642 43.9162C136.023 39.0948 134.619 33.8509 132 28.8275C132.964 28.2673 133.806 27.6061 134.76 27.2571C137.024 26.4306 139.334 25.7418 141.636 25.0254C142.908 24.6397 143.993 24.952 144.573 26.1918C146.22 29.6724 147.81 33.1713 149.4 36.6795C149.606 37.1203 149.728 37.607 149.859 38.0754C150.299 39.6825 150.177 40.0774 148.558 40.7203C146.547 41.5193 144.48 42.1713 142.431 42.8417C141.327 43.1999 140.195 43.4845 138.642 43.9162Z" fill="#FEFEFE"/>
<path d="M137.511 22.0955C137.504 22.2608 137.504 22.4261 137.511 22.5914C137.585 23.5098 137.651 24.419 136.444 24.7312C135.163 25.0618 134.545 24.2261 134.208 23.2986C133.373 20.9904 132.618 18.6578 131.944 16.3006C131.551 14.8955 132.216 13.9313 133.525 13.8486C133.937 13.8211 134.648 14.0323 134.779 14.3261C135.771 16.567 136.669 18.8445 137.557 21.1312C137.67 21.4159 137.576 21.7741 137.576 22.0955C137.551 22.0955 137.529 22.0955 137.511 22.0955Z" fill="#DCB725"/>
<path d="M113.076 29.8002C113.263 32.8859 113.453 35.9716 113.647 39.0573C113.771 39.0818 113.899 39.1063 114.03 39.1307C114.735 35.8124 115.44 32.491 116.144 29.1665C116.319 29.1726 116.497 29.1757 116.678 29.1757C116.781 29.4328 117.015 29.6992 116.968 29.9288C116.266 33.7859 115.826 37.7165 114.676 41.445C114.161 43.1348 114.33 44.1726 115.19 45.4491C117.56 49.0062 119.911 52.5756 122.244 56.1572C122.646 56.7817 123.058 57.4153 123.339 58.0857C123.498 58.4715 123.413 58.9674 123.226 59.5C120.878 57.0664 119.55 53.9807 117.445 51.4001C117.95 54.6235 120.008 57.3694 120.279 60.6755C118.296 59.5276 118.146 57.3694 117.295 55.6337C116.416 53.8246 115.78 51.9052 114.825 50.0776C114.114 53.6317 115.377 57.1766 114.657 60.7123C113.516 58.8113 113.768 56.6806 113.572 54.6419C113.366 52.5296 113.207 50.4174 112.87 48.2868C111.392 53.6133 111.645 59.1786 110.859 64.597C110.653 64.6215 110.444 64.649 110.232 64.6796C110.054 64.2388 109.708 63.798 109.727 63.3755C109.867 60.7582 109.923 58.1317 110.307 55.5511C110.906 51.5195 111.748 47.5246 112.468 43.5113C112.496 43.4011 112.337 43.2542 112.094 42.7858C111.794 43.4287 111.504 43.8419 111.42 44.2919C110.385 50.1695 109.356 56.05 108.333 61.9337C108.208 62.6561 108.055 63.3725 107.875 64.0827C107.847 64.1745 107.631 64.2204 107.285 64.4133C106.78 62.9347 106.995 61.4745 107.248 60.1062C108.196 55.0429 109.234 49.998 110.363 44.9715C110.662 43.6583 110.531 42.795 109.718 41.6379C107.931 39.0848 106.481 36.3114 104.965 33.593C104.563 32.8675 104.46 31.9859 104.516 31.04C107.126 33.3542 108.043 36.7706 110.616 39.7369C110.354 35.9348 108.558 32.9226 108.978 29.5614C110.616 31.7471 110.372 34.5757 111.935 37.4226C112.225 34.5206 112.459 32.1695 112.692 29.8185C112.817 29.8124 112.945 29.8063 113.076 29.8002Z" fill="#5CA3A5"/>
<path d="M118.529 64.6618C120.923 67.1321 121.148 68.6475 119.427 70.0985C117.668 71.5862 115.722 71.2648 113.86 69.1342C113.661 69.1832 113.446 69.2383 113.215 69.2995C111.063 69.823 110.015 68.9597 110.193 66.8842C110.277 65.9475 110.305 64.9832 110.212 64.0465C109.997 62.0904 111.391 59.9138 113.365 59.2985C115.554 58.6097 118.07 59.4363 119.118 61.1077C119.988 62.4852 119.127 63.5781 118.529 64.6618Z" fill="#E6646A"/>
<path d="M111.71 79.2821C109.914 79.328 108.848 78.6576 108.586 77.4821C108.371 76.5362 108.408 75.5627 107.426 74.9199C107.164 74.7454 107.108 73.9923 107.229 73.5974C107.697 72.0913 110.242 70.9066 111.748 71.4392C112.038 71.5403 112.515 71.7331 112.543 71.926C112.721 73.4596 113.937 74.3597 114.676 75.5535C115.256 76.4811 114.639 77.5096 113.843 78.1341C113.095 78.7219 112.141 79.0617 111.71 79.2821Z" fill="#E6646A"/>
<path d="M102.251 70.7963C101.886 70.7136 101.55 70.6861 101.26 70.5575C99.7441 69.9422 99.4634 68.6014 100.839 67.8851C101.914 67.3249 102.588 66.5718 103.299 65.6626C104.45 64.2208 106.919 64.6432 106.882 66.333C106.845 67.8942 109.979 68.4728 107.995 69.9514C106.826 70.8238 106.143 71.935 105.198 72.8993C104.412 73.6983 103.224 73.4503 102.691 72.4401C102.438 71.9626 102.392 71.3748 102.251 70.7963Z" fill="#E6646A"/>
<path d="M122.084 71.6228C123.291 71.5952 124.104 72.3758 124.076 73.5513C124.048 74.9473 122.954 75.9758 121.513 75.9575C120.259 75.9483 119.558 75.2319 119.539 73.9738C119.53 72.5228 120.465 71.6503 122.084 71.6228Z" fill="#E6646A"/>
<path d="M128.81 68.0137C130.232 68.0596 130.663 68.629 130.345 70.0249C130.204 70.6402 130.251 71.3841 129.914 71.8524C129.54 72.3667 128.848 72.8626 128.24 72.9453C127.416 73.0463 127.267 72.3392 127.323 71.5953C127.36 71.1361 127.173 70.6678 127.061 70.2178C126.64 68.5647 127.126 67.9586 128.81 68.0137Z" fill="#E6646A"/>
<path d="M123.094 59.7942C123.599 58.9493 123.908 58.2881 124.347 57.7095C125.171 56.635 126.331 56.7636 126.78 58.0677C127.266 59.4911 127.191 60.9146 125.76 62.1911C124.89 61.4105 124.076 60.6758 123.094 59.7942Z" fill="#E6646A"/>
<path d="M123.609 69.731C122.945 68.9412 122.318 68.5279 122.243 68.0412C122.122 67.2147 122.767 66.5626 123.59 66.6637C124.096 66.728 124.919 67.3892 124.9 67.7473C124.872 68.2983 124.245 68.8218 123.609 69.731Z" fill="#E6646A"/>
<path d="M121.213 78.6853C120.212 79.319 119.698 79.8424 119.099 79.971C118.36 80.1271 117.902 79.6496 117.958 78.8231C118.014 78.0333 118.21 77.2527 119.165 77.3904C119.735 77.4731 120.24 78.0425 121.213 78.6853Z" fill="#E6646A"/>
<path d="M129.698 62.4758C129.165 61.585 128.716 61.0707 128.576 60.4738C128.538 60.2993 129.324 59.7299 129.773 59.684C130.615 59.5922 130.914 60.336 130.849 60.9697C130.802 61.383 130.278 61.7503 129.698 62.4758Z" fill="#E6646A"/>
<path d="M130.392 64.4228C129.718 65.1391 129.419 65.6625 128.97 65.8646C128.362 66.1493 127.426 65.3411 127.539 64.6064C127.595 64.2666 128.119 63.7432 128.418 63.7432C128.961 63.7523 129.503 64.0922 130.392 64.4228Z" fill="#E6646A"/>
<path d="M134.845 66.8841C134.013 67.5178 133.592 68.0688 133.096 68.1422C132.75 68.1974 132.301 67.6004 131.898 67.2973C132.282 66.8749 132.6 66.2688 133.096 66.0759C133.395 65.9565 133.947 66.4433 134.845 66.8841Z" fill="#E6646A"/>
<path d="M127.762 76.0034C127.182 76.3983 126.79 76.8024 126.331 76.9126C126.144 76.9585 125.592 76.3524 125.564 76.0218C125.508 75.2136 126.135 74.9014 126.855 75.0483C127.136 75.1034 127.342 75.5442 127.762 76.0034Z" fill="#E6646A"/>
<path d="M122.627 61.916C123.048 62.3936 123.544 62.715 123.553 63.0364C123.563 63.3762 123.095 63.7252 122.833 64.065C122.459 63.7436 121.944 63.4864 121.766 63.0823C121.682 62.8895 122.234 62.4303 122.627 61.916Z" fill="#E6646A"/>
<path d="M116.405 73.8911C115.386 74.0013 114.665 73.836 114.684 72.8442C114.684 72.6054 115.255 72.1462 115.535 72.1646C116.499 72.2473 116.677 72.8993 116.405 73.8911Z" fill="#E6646A"/>
<path d="M113.31 21.1953C113.656 23.7208 114.357 25.9432 113.188 28.1565C113.01 28.4963 112.992 28.9463 113.001 29.3504C113.057 33.0146 113.132 36.6789 113.207 40.5085C113.964 40.582 114.573 40.6462 115.171 40.7105C116.154 43.484 114.17 45.9085 111.345 45.3666C110.625 45.2381 110.082 44.8707 110.905 44.237C110.157 44.0166 109.352 43.7778 108.548 43.5391C108.529 43.3309 108.507 43.1258 108.482 42.9238C109.381 42.4922 110.288 42.0605 111.336 41.5646C111.373 41.3075 111.476 40.9126 111.467 40.5268C111.345 36.8626 111.186 33.1983 111.092 29.5249C111.064 28.4596 111.083 27.4861 110.297 26.5585C109.352 25.4473 109.53 24.0973 110.12 22.8575C110.475 22.1045 110.905 21.3422 112.019 22.0402C112.15 22.132 112.674 21.6269 113.31 21.1953Z" fill="#DCB725"/>
</svg>
