<svg width="64" height="64" viewBox="0 0 64 64" fill="none" xmlns="http://www.w3.org/2000/svg">
<path d="M25.0938 43.0233C25.0938 43.3627 24.9589 43.6883 24.7189 43.9284C24.4788 44.1684 24.1532 44.3033 23.8138 44.3033H18.2202V46.1209C18.2202 46.538 18.3857 46.938 18.6804 47.2332C18.9751 47.5284 19.3749 47.6946 19.792 47.6953H21.3613C21.7008 47.6953 22.0263 47.8301 22.2664 48.0702C22.5064 48.3102 22.6413 48.6358 22.6413 48.9753C22.6413 49.3147 22.5064 49.6403 22.2664 49.8804C22.0263 50.1204 21.7008 50.2553 21.3613 50.2553H19.792C18.6966 50.2539 17.6464 49.8182 16.8718 49.0436C16.0973 48.269 15.6615 47.2188 15.6602 46.1234V10.1733C15.6615 9.07837 16.0969 8.02859 16.8709 7.25409C17.645 6.47959 18.6945 6.04354 19.7894 6.0415H38.7923C39.8877 6.04286 40.9379 6.47861 41.7125 7.25319C42.487 8.02777 42.9228 9.07793 42.9242 10.1733V35.5941C42.9242 35.9336 42.7893 36.2592 42.5493 36.4992C42.3092 36.7393 41.9836 36.8741 41.6442 36.8741C41.3047 36.8741 40.9791 36.7393 40.7391 36.4992C40.499 36.2592 40.3642 35.9336 40.3642 35.5941V10.1733C40.3635 9.75667 40.1977 9.35726 39.903 9.06263C39.6084 8.768 39.209 8.60218 38.7923 8.6015H30.5722V9.05974C30.5722 9.39922 30.4373 9.72479 30.1973 9.96484C29.9572 10.2049 29.6316 10.3397 29.2922 10.3397C28.9527 10.3397 28.6271 10.2049 28.3871 9.96484C28.147 9.72479 28.0122 9.39922 28.0122 9.05974V8.59894H19.7894C19.3723 8.59962 18.9725 8.7658 18.6778 9.06098C18.3831 9.35616 18.2176 9.75623 18.2176 10.1733V41.7433H23.8112C24.1507 41.7433 24.4762 41.8781 24.7163 42.1182C24.9563 42.3582 25.0912 42.6838 25.0912 43.0233H25.0938ZM44.857 39.9769L38.073 38.9221V31.6287C38.073 30.6473 37.6831 29.706 36.9891 29.0121C36.2951 28.3181 35.3539 27.9282 34.3725 27.9282C33.3911 27.9282 32.4498 28.3181 31.7558 29.0121C31.0619 29.706 30.672 30.6473 30.672 31.6287V39.6338L26.919 45.3247C26.2601 46.331 25.8708 47.4897 25.7883 48.6897C25.7058 49.8897 25.933 51.0908 26.448 52.1778L28.8544 57.2287C29.0082 57.5217 29.2696 57.7437 29.5835 57.8482C29.8975 57.9526 30.2398 57.9314 30.5385 57.789C30.8372 57.6466 31.0691 57.3941 31.1856 57.0844C31.3022 56.7747 31.2943 56.4319 31.1635 56.1279L28.7571 51.077C28.4312 50.3883 28.2873 49.6276 28.3393 48.8674C28.3913 48.1073 28.6374 47.3732 29.0541 46.7353L30.672 44.2828V47.7465C30.672 48.0859 30.8069 48.4115 31.0469 48.6516C31.2869 48.8916 31.6125 49.0265 31.952 49.0265C32.2915 49.0265 32.617 48.8916 32.8571 48.6516C33.0971 48.4115 33.232 48.0859 33.232 47.7465V31.6287C33.232 31.3266 33.352 31.0368 33.5657 30.8232C33.7793 30.6095 34.0691 30.4895 34.3712 30.4895C34.6733 30.4895 34.9631 30.6095 35.1767 30.8232C35.3904 31.0368 35.5104 31.3266 35.5104 31.6287V40.0204C35.5104 40.0588 35.5309 40.0921 35.5334 40.1279C35.541 40.2352 35.5626 40.341 35.5974 40.4428C35.62 40.5038 35.6474 40.5628 35.6794 40.6194C35.7544 40.77 35.863 40.9014 35.9968 41.0034C36.061 41.0565 36.1305 41.1028 36.2042 41.1417C36.2834 41.1812 36.3666 41.2121 36.4525 41.2338C36.4958 41.2527 36.5403 41.2689 36.5856 41.2825L44.4602 42.5087C44.8513 42.5747 45.2036 42.7847 45.4476 43.0974C45.6916 43.4101 45.8097 43.8029 45.7786 44.1983L44.8083 56.5785C44.7947 56.7463 44.8144 56.9152 44.8663 57.0754C44.9181 57.2357 45.0012 57.384 45.1106 57.5121C45.2201 57.6401 45.3538 57.7452 45.504 57.8213C45.6542 57.8974 45.818 57.9431 45.9859 57.9557C46.02 57.9579 46.0542 57.9587 46.0883 57.9583C46.409 57.9568 46.7174 57.8349 46.9526 57.6168C47.1877 57.3988 47.3324 57.1004 47.3581 56.7807L48.3309 44.3954C48.4092 43.3582 48.0959 42.3293 47.4528 41.5118C46.8097 40.6942 45.8835 40.1449 44.857 39.9769ZM24.976 23.0655L23.9162 32.5554L26.832 32.7167C27.1715 32.7167 27.497 32.8516 27.7371 33.0916C27.9771 33.3317 28.112 33.6572 28.112 33.9967C28.112 34.3362 27.9771 34.6618 27.7371 34.9018C27.497 35.1419 27.1715 35.2767 26.832 35.2767H24.0621C23.6843 35.2771 23.3106 35.1983 22.9651 35.0455C22.6195 34.8927 22.3098 34.6693 22.0559 34.3895C21.802 34.1098 21.6094 33.78 21.4907 33.4213C21.3719 33.0627 21.3296 32.6831 21.3664 32.3071L22.2829 22.9477C22.3472 22.2785 22.6589 21.6573 23.157 21.2056C23.655 20.754 24.3036 20.5043 24.976 20.5055H26.1587V19.0719C26.1587 18.1801 26.513 17.3248 27.1436 16.6942C27.7742 16.0636 28.6295 15.7093 29.5213 15.7093C30.4131 15.7093 31.2684 16.0636 31.899 16.6942C32.5296 17.3248 32.8838 18.1801 32.8838 19.0719V20.5055H33.6134C34.2815 20.506 34.9256 20.7545 35.4208 21.2029C35.9161 21.6513 36.2271 22.2676 36.2938 22.9324L36.3987 24.0204C36.4308 24.3581 36.3275 24.6948 36.1115 24.9564C35.8955 25.218 35.5844 25.3832 35.2467 25.4156C35.205 25.4198 35.1632 25.4215 35.1213 25.4207C34.8034 25.4203 34.497 25.3015 34.2618 25.0877C34.0266 24.8738 33.8795 24.58 33.849 24.2636L33.7466 23.1884L29.2896 23.0655H24.976ZM28.7187 20.5055H30.3238V19.0719C30.3238 18.8591 30.2393 18.6549 30.0888 18.5044C29.9383 18.3539 29.7341 18.2693 29.5213 18.2693C29.3084 18.2693 29.1043 18.3539 28.9538 18.5044C28.8033 18.6549 28.7187 18.8591 28.7187 19.0719V20.5055Z" fill="#303036"/>
</svg>
