<svg width="64" height="64" viewBox="0 0 64 64" fill="none" xmlns="http://www.w3.org/2000/svg">
<path d="M34 56H12C10.3 56 9 54.7 9 53V11C9 9.3 10.3 8 12 8H34C35.7 8 37 9.3 37 11V22C37 22.6 36.6 23 36 23C35.4 23 35 22.6 35 22V11C35 10.4 34.6 10 34 10H12C11.4 10 11 10.4 11 11V53C11 53.6 11.4 54 12 54H34C34.6 54 35 53.6 35 53V44C35 43.4 35.4 43 36 43C36.6 43 37 43.4 37 44V53C37 54.7 35.7 56 34 56Z" fill="#303036"/>
<path d="M26.6 15H19.3C18.1 15 17 14.3 16.5 13.1L14.5 8H31.5L29.5 13.1C29 14.3 27.9 15 26.6 15ZM17.5 10L18.4 12.4C18.6 12.8 18.9 13 19.3 13H26.6C27 13 27.4 12.8 27.5 12.4L28.4 10H17.5Z" fill="#303036"/>
<path d="M53 45H49.9C49.3 45 48.9 44.6 48.9 44C48.9 43.4 49.3 43 49.9 43H53C53.6 43 54 42.6 54 42V39H24V42C24 42.6 24.4 43 25 43H28.1C28.7 43 29.1 43.4 29.1 44C29.1 44.6 28.7 45 28.1 45H25C23.3 45 22 43.7 22 42V37H56V42C56 43.7 54.7 45 53 45Z" fill="#303036"/>
<path d="M42.1008 45H35.8008C35.2008 45 34.8008 44.6 34.8008 44C34.8008 43.4 35.2008 43 35.8008 43H42.1008C42.7008 43 43.1008 43.4 43.1008 44C43.1008 44.6 42.7008 45 42.1008 45Z" fill="#303036"/>
<path d="M32 50C29.2 50 27 47.8 27 45C27 42.2 29.2 40 32 40C34.8 40 37 42.2 37 45C37 47.8 34.8 50 32 50ZM32 42C30.3 42 29 43.3 29 45C29 46.7 30.3 48 32 48C33.7 48 35 46.7 35 45C35 43.3 33.7 42 32 42ZM46 50C43.2 50 41 47.8 41 45C41 42.2 43.2 40 46 40C48.8 40 51 42.2 51 45C51 47.8 48.8 50 46 50ZM46 42C44.3 42 43 43.3 43 45C43 46.7 44.3 48 46 48C47.7 48 49 46.7 49 45C49 43.3 47.7 42 46 42ZM56 39H42V27H45C51.1 27 56 31.9 56 38V39ZM44 37H53.9C53.4 32.5 49.6 29 45 29H44V37Z" fill="#303036"/>
<path d="M44 39H23C22.4 39 22 38.6 22 38C22 37.4 22.4 37 23 37H42V24C42 23.4 41.6 23 41 23H32C31.4 23 31 22.6 31 22C31 21.4 31.4 21 32 21H41C42.7 21 44 22.3 44 24V39Z" fill="#303036"/>
<path d="M29 35H18C17.4 35 17 34.6 17 34C17 33.4 17.4 33 18 33H29C29.6 33 30 33.4 30 34C30 34.6 29.6 35 29 35ZM29 31H21C20.4 31 20 30.6 20 30C20 29.4 20.4 29 21 29H29C29.6 29 30 29.4 30 30C30 30.6 29.6 31 29 31ZM29 27H24C23.4 27 23 26.6 23 26C23 25.4 23.4 25 24 25H29C29.6 25 30 25.4 30 26C30 26.6 29.6 27 29 27Z" fill="#303036"/>
</svg>
