<svg width="24" height="24" viewBox="0 0 24 24" fill="none" xmlns="http://www.w3.org/2000/svg">
<path d="M20.0156 2H3.81444C2.5415 2 1.5 3.0415 1.5 4.31444V20.5155C1.5 21.7896 2.5415 22.83 3.81444 22.83H11.915V14.7294H9.60055V11.8653H11.915V9.49301C11.915 6.98879 13.3176 5.22981 16.2731 5.22981L18.3596 5.23212V8.24669H16.9744C15.8241 8.24669 15.3867 9.10997 15.3867 9.91077V11.8665H18.3584L17.7011 14.7294H15.3867V22.83H20.0156C21.2885 22.83 22.33 21.7896 22.33 20.5155V4.31444C22.33 3.0415 21.2885 2 20.0156 2Z" fill="#303036"/>
</svg>
