<svg width="200" height="140" viewBox="0 0 200 140" fill="none" xmlns="http://www.w3.org/2000/svg">
<g clip-path="url(#clip0_4176_5072)">
<path d="M90.7349 78.4242C90.2481 83.9038 89.7392 89.378 89.2081 94.8466C88.6771 100.326 88.1156 105.798 87.5237 111.261C86.6607 119.166 85.7479 127.062 84.8767 134.967C84.7356 136.201 85.3082 137.177 86.3039 137.608C89.2745 138.882 92.1456 137.434 93.1413 133.891C94.4357 129.305 95.5891 124.654 96.7093 119.993C97.7631 115.582 98.4934 111.045 99.7131 106.708C101.696 99.6227 103.953 92.6531 106.119 85.6421C106.899 83.1092 107.737 80.6011 108.542 78.1014C100.941 78.1014 90.7432 75.7754 90.7432 75.7754C90.7432 76.6528 90.8096 77.5468 90.7349 78.4242Z" fill="#315369"/>
<path d="M125.719 85.0625C126.092 89.0771 126.549 93.0751 126.906 97.0896C127.221 100.525 127.445 103.968 127.719 107.403C128.175 112.966 128.648 118.528 129.088 124.091C129.436 128.433 129.76 132.782 130.059 137.136C130.15 138.468 130.582 139.28 131.785 139.396C133.419 139.561 135.046 139.892 136.68 139.991C137.983 140.074 138.688 139.271 138.896 137.649C139.244 134.893 139.585 132.128 139.858 129.355C140.572 121.947 141.228 114.53 141.95 107.122C142.92 97.28 143.941 87.4464 144.953 77.4556C138.108 78.2254 125.213 78.3247 125.213 78.3247C125.395 80.8079 125.52 82.9435 125.719 85.0625Z" fill="#315369"/>
<path d="M159.906 75.7835C160.612 78.4571 161.325 81.1059 162.006 83.7712C163.333 88.9529 164.628 94.1511 165.964 99.3328C167.258 104.365 168.677 109.348 169.889 114.406C171.706 121.98 173.382 129.603 175.133 137.202C175.324 138.03 175.73 138.642 176.518 138.808C178.643 139.238 180.759 139.131 182.858 138.675C183.986 138.435 184.717 137.21 184.576 136.01C184.144 132.178 183.729 128.345 183.223 124.529C182.236 117.129 181.041 109.779 180.219 102.354C179.331 94.3663 178.402 86.4034 176.933 78.5316C176.668 77.1327 176.56 75.6925 176.369 74.1694C169.573 76.3381 159.906 75.7835 159.906 75.7835Z" fill="#315369"/>
<path d="M196.582 75.1378C199.296 72.9856 200.789 70.4114 199.57 67.3653C198.126 63.7398 195.081 61.0993 190.641 59.5679C187.637 58.5333 184.584 57.5896 181.522 56.6626C179.871 56.1659 178.186 55.661 176.46 55.363C168.494 53.9559 160.396 53.1778 152.272 52.6894C145.717 52.3004 139.137 52.2176 132.573 52.0521C124.818 51.8644 117.09 52.1486 109.389 52.9046C100.602 53.7738 87.7321 55.1644 79.5007 57.8214C75.2937 59.1872 71.4269 61.033 67.8838 63.2431C66.191 64.2943 64.8385 65.7015 64.3323 67.4894C63.627 69.9975 63.7183 72.3069 65.3861 74.6742C66.7221 76.5863 68.4065 78.0183 70.8959 78.7964C74.439 79.8973 78.0402 80.8823 81.6581 81.8342C83.1932 82.2398 89.0763 82.4302 90.7442 82.7282C90.7442 82.7282 100.942 84.2595 108.543 84.2595C111.464 84.2595 114.244 84.2429 117.023 84.2677C119.77 84.2926 122.516 84.3588 125.213 84.4085C125.213 84.4085 138.108 84.3423 144.954 83.8373C149.783 83.4814 154.737 83.1172 159.906 82.7364C159.906 82.7364 169.573 83.1006 176.369 81.6769C179.464 81.0313 182.36 80.427 185.248 79.8145C189.463 78.9205 193.438 77.6293 196.582 75.1378Z" fill="#D9DCEC"/>
<path fill-rule="evenodd" clip-rule="evenodd" d="M95.9223 39.6606C96.8351 39.0894 97.1753 38.2203 97.25 37.2518C97.3329 36.2254 97.3329 35.2073 97.3495 34.1809C97.3827 32.6413 97.8225 32.095 99.3576 31.9294C101.739 31.6811 104.121 31.3997 106.51 31.3086C109.929 31.1845 113.356 31.1845 116.783 31.201C118.974 31.2093 119.314 31.5901 119.173 33.7422C119.065 35.4639 119.496 37.0532 120.683 38.2782C121.903 39.5447 123.33 40.6207 124.865 41.9534C125.628 41.0098 126.782 39.8509 127.603 38.4934C129.006 36.1758 131.005 35.8116 133.495 36.2999C134.067 37.227 133.669 38.1292 133.296 38.9818C132.018 41.8541 130.69 44.7015 129.396 47.5655C128.856 48.7409 128.242 49.8997 127.852 51.1248C127.545 52.0767 127.404 53.1196 127.404 54.1212C127.388 56.3064 127.537 58.4917 127.554 60.6769C127.578 62.6966 126.566 64.0044 124.541 64.3604C122.799 64.6666 121.015 64.8073 119.239 64.8901C111.738 65.2378 104.237 65.1219 96.7355 65.1302C96.2542 65.1302 95.7729 65.1384 95.3 65.0805C91.0515 64.5921 90.7611 64.0541 90.6698 60.4038C90.5951 57.4239 89.0766 55.4125 86.6952 53.8977C85.8903 53.3845 85.0688 52.8796 84.2224 52.4409C80.4386 50.4874 79.3931 46.1252 80.1316 42.599C80.8369 39.2963 84.0565 36.8214 87.5996 36.54C90.6117 36.2999 93.3334 36.8793 95.3996 39.3129C95.5157 39.4536 95.7149 39.5281 95.9223 39.6606ZM90.4458 52.3333C90.6532 51.8615 90.8026 51.6297 90.8607 51.3814C91.4913 48.7326 92.1081 46.0811 92.7111 43.4268C92.7774 43.1122 92.8189 42.6984 92.6696 42.45C91.5826 40.6621 88.3298 39.1308 86.272 40.8691C83.9154 42.8556 83.625 47.0357 85.8903 49.1051C87.2345 50.3218 88.8609 51.2241 90.4458 52.3333Z" fill="#E9CD16"/>
<path d="M99.9972 35.5303C99.3832 35.5303 98.7609 35.5634 98.1468 35.5303C96.2715 35.4144 95.7986 34.9592 95.5828 33.0388C95.5275 32.4263 95.5054 31.8137 95.5164 31.2012C95.533 28.9415 96.3462 27.733 98.4704 27.079C99.7732 26.6817 101.126 26.4334 102.47 26.2182C104.528 25.9036 105.3 25.1421 105.524 23.048C105.706 21.2849 105.963 21.0531 107.805 21.02C108.287 21.0117 108.768 20.962 109.241 20.9951C110.735 21.1027 111.174 21.5001 111.44 22.9238C111.515 23.3294 111.498 23.7432 111.581 24.1488C111.78 25.1007 112.295 25.7878 113.332 25.8788C114.286 25.9533 115.24 26.0195 116.186 26.0195C119.124 25.9947 121.231 27.5757 121.721 30.39C122.459 34.6529 121.845 34.4046 118.443 34.6529C113.946 34.9757 109.424 35.0585 104.918 35.2654C103.275 35.3399 101.64 35.4641 99.9972 35.5717C99.9972 35.5607 99.9972 35.5468 99.9972 35.5303Z" fill="#315369"/>
<path fill-rule="evenodd" clip-rule="evenodd" d="M173.258 41.283C174.163 41.4155 174.951 41.4403 175.681 41.6555C178.975 42.6074 179.639 43.4683 180.079 46.3902C180.253 47.5076 180.444 48.6334 180.494 49.7591C180.577 51.4229 180.668 53.1032 180.519 54.7587C180.392 56.061 179.689 57.0598 178.411 57.7551C176.486 58.7898 174.395 59.096 172.287 59.5099C171.897 60.7681 171.474 62.018 171.134 63.2927C170.744 64.7661 169.765 65.5524 168.296 65.6766C165.998 65.867 163.699 66.0656 161.392 66.0739C158.538 66.0904 155.675 65.9166 152.821 65.8256C151.385 65.7759 150.141 65.1634 149.012 64.3605C148.63 64.0873 148.406 63.4748 148.29 62.9781C147.867 61.1488 147.56 59.303 147.137 57.4819C146.821 56.1493 146.349 54.858 146 53.5253C145.535 51.7457 145.286 49.8833 144.647 48.1699C143.809 45.935 144.033 43.5179 143.162 41.2996C142.855 40.5381 142.971 39.5613 143.079 38.7005C143.162 37.9886 143.718 37.4423 144.423 37.2602C145.411 37.0202 146.365 36.5483 147.452 36.7967C147.751 36.8629 148.116 36.656 148.448 36.6311C149.518 36.5815 150.597 36.5815 151.659 36.507C152.58 36.4408 153.485 36.2586 154.406 36.2007C155.628 36.129 156.854 36.0876 158.082 36.0765C161.279 36.0324 164.476 35.9993 167.674 35.9772C168.802 35.9689 169.939 35.9193 171.051 36.0434C172.644 36.2255 173.374 36.9291 173.267 38.4191C173.2 39.2965 173.258 40.1904 173.258 41.283ZM172.262 54.7918C173.499 54.5352 174.495 54.3282 175.482 54.1296C176.013 54.022 176.154 53.7074 176.171 53.1777C176.229 51.4725 176.362 49.7674 176.436 48.0622C176.461 47.4663 176.212 46.9944 175.507 46.9862C174.633 46.9806 173.781 46.9806 172.951 46.9862C172.022 49.5604 172.711 52.0354 172.262 54.7918Z" fill="#315369"/>
<path d="M154.688 2.72705C158.837 3.09126 162.172 4.78815 164.197 8.57093C165.989 11.9481 165.234 18.3797 160.861 20.5152C160.422 20.7305 160.048 21.0781 159.592 21.2685C156.804 22.4273 156.381 24.985 156.679 27.5676C156.82 28.8092 157.252 29.9515 158.405 30.713C158.679 30.9034 158.895 31.5076 158.803 31.8387C158.654 32.4099 158.09 32.1947 157.667 32.0953C155.011 31.458 153.227 29.7777 152.165 27.3524C151.734 26.3756 151.485 25.283 151.352 24.2152C151.136 22.5763 151.667 21.1029 152.746 19.8365C153.285 19.1991 153.916 18.6114 154.364 17.9079C154.97 16.9642 155.551 15.9709 155.924 14.9197C156.314 13.8354 156.206 12.7096 155.733 11.6004C154.895 9.6387 153.949 7.75973 152.539 6.12908C151.925 5.41722 151.228 4.62259 151.734 3.62103C152.232 2.61946 153.31 2.77672 154.24 2.72705C154.389 2.72705 154.538 2.72705 154.688 2.72705Z" fill="#9CACB9"/>
<path d="M27.2501 88.2496C29.2747 88.1889 31.2966 88.1171 33.3157 88.0344C33.7887 88.0178 34.2617 87.9516 34.7181 88.0013C35.0223 88.0344 35.274 88.1282 35.4732 88.2827H35.4814L47.6045 88.084C48.2103 88.1503 48.7496 88.2661 49.2724 88.2413C49.8864 88.2082 50.4922 88.0178 51.1062 87.9599C51.9858 87.8854 53.637 86.6686 53.7117 85.8574C53.7947 84.8807 53.8279 83.8791 53.72 82.9106C53.4877 80.8165 53.1474 78.7388 52.857 76.6612C52.716 75.7093 51.8115 74.7656 50.8988 74.7408C49.3056 74.6912 47.6958 74.567 46.1192 74.716C42.7088 75.0554 39.2984 74.4428 35.9046 74.9229C35.8549 74.9284 35.8023 74.9257 35.747 74.9147C33.5481 74.6001 31.3326 74.8981 29.1336 74.956C22.6697 75.1464 16.214 75.4775 9.75001 75.8417C7.86642 75.9493 5.94963 75.8417 4.09922 76.4625C2.54753 76.984 2.06625 77.4227 1.8837 79.0368C1.61817 81.3876 2.01647 83.6887 2.51434 85.9733C3.0205 88.2413 3.75071 88.738 6.09068 88.68C7.37684 88.6469 8.66301 88.6717 10.1151 88.6717L23.3501 88.2827C24.6528 88.2661 25.9473 88.2827 27.2501 88.2496Z" fill="#D9DCEC"/>
<path d="M57.3458 135.414C56.8728 133.651 56.3749 131.888 55.9103 130.125C55.8356 129.835 55.8522 129.521 55.8273 129.223C55.8107 128.925 55.8688 128.594 55.7443 128.354C54.9394 126.773 54.8067 125.034 54.4416 123.354C54.3918 123.114 54.4665 122.775 54.3337 122.642C53.7611 122.096 53.869 121.434 53.8275 120.763C53.8026 120.333 53.5703 119.919 53.4209 119.505C53.3214 119.215 53.1471 118.95 53.089 118.652C52.8567 117.56 52.6658 116.451 52.4501 115.358C51.695 111.55 50.915 107.759 50.1848 103.952C49.698 101.397 49.2388 98.8391 48.8074 96.2786C48.7078 95.7323 48.7825 95.1612 48.6746 94.6149C48.492 93.6602 48.3012 92.7055 48.1021 91.7509C47.9361 90.9507 47.7729 90.1506 47.6125 89.3504C47.5461 89.0111 47.6042 88.6468 47.6042 88.084L35.4811 88.2826H35.4728C35.7273 88.4647 35.9043 88.7517 36.0039 89.1435C36.1366 89.6953 36.2694 90.2499 36.4022 90.8072C37.0909 93.6298 37.8045 96.4773 38.5513 99.5317C31.996 100.078 25.6482 100.616 19.0847 101.171C19.4747 99.3909 19.7817 97.8513 20.1551 96.32C20.6944 94.0851 21.2836 91.8585 21.8312 89.6236C21.8478 89.5463 21.8672 89.4691 21.8893 89.3918C22.0802 88.5889 22.5946 88.2909 23.3497 88.2826L10.1148 88.6717C9.90733 90.4265 9.77455 92.0157 9.52561 93.5884C9.11072 96.2041 8.60456 98.8032 8.15648 101.411C7.68351 104.101 7.28522 106.807 6.76246 109.489C6.15672 112.668 5.45141 115.83 4.79589 119C4.76269 119.157 4.77097 119.356 4.6714 119.447C3.5263 120.548 4.49715 122.303 3.41014 123.412C3.41014 125.92 2.0991 128.155 1.89166 130.638C1.78379 131.921 1.20292 133.163 0.862715 134.429C0.563995 135.522 0.240397 136.623 0.0495479 137.74C-0.191088 139.156 0.447826 139.917 1.89994 139.967C3.54843 140.022 5.19695 140.008 6.84544 139.925C7.18565 139.909 7.57564 139.545 7.82457 139.238C8.07351 138.932 8.21456 138.518 8.33073 138.121C9.60859 133.949 10.845 129.769 12.156 125.606C12.6456 124.041 12.853 122.435 13.409 120.871C14.4877 117.866 15.1598 114.721 16.0477 111.641C16.2551 110.913 16.5041 110.102 17.0019 109.58C17.3255 109.241 18.1304 109.357 18.7196 109.258C22.0221 108.695 25.3744 108.728 28.7018 108.471C31.0584 108.289 33.4149 108.14 35.7632 107.917C37.3813 107.768 38.9828 107.47 40.7419 107.71C41.3891 110.069 41.9783 112.42 42.6836 114.737C43.3889 117.047 44.2768 119.306 44.9489 121.624C45.5878 123.842 45.9861 126.119 46.6167 128.337C47.5129 131.466 48.5833 134.545 49.4546 137.674C49.7865 138.866 50.4835 139.487 51.5954 139.603C53.0309 139.752 54.4913 139.71 55.9352 139.801C56.9309 139.859 57.6528 139.536 58.0926 138.444C57.8602 137.517 57.6196 136.465 57.3458 135.414Z" fill="#315369"/>
</g>
<defs>
<clipPath id="clip0_4176_5072">
<rect width="200" height="137.273" fill="white" transform="translate(0 2.72705)"/>
</clipPath>
</defs>
</svg>
