<svg width="64" height="64" viewBox="0 0 64 64" fill="none" xmlns="http://www.w3.org/2000/svg">
<path d="M49.2857 10H44.5714C43.7036 10 43 10.7036 43 11.5714C43 12.4392 43.7036 13.1429 44.5714 13.1429H49.2857C50.152 13.1429 50.8571 13.848 50.8571 14.7143V19.4286C50.8571 20.2964 51.5608 21 52.4286 21C53.2964 21 54 20.2964 54 19.4286V14.7143C54 12.1147 51.8853 10 49.2857 10ZM52.4286 43C51.5608 43 50.8571 43.7036 50.8571 44.5714V49.2857C50.8571 50.152 50.152 50.8571 49.2857 50.8571H44.5714C43.7036 50.8571 43 51.5608 43 52.4286C43 53.2964 43.7036 54 44.5714 54H49.2857C51.8853 54 54 51.8853 54 49.2857V44.5714C54 43.7036 53.2964 43 52.4286 43ZM11.5714 21C12.4392 21 13.1429 20.2964 13.1429 19.4286V14.7143C13.1429 13.848 13.848 13.1429 14.7143 13.1429H19.4286C20.2964 13.1429 21 12.4392 21 11.5714C21 10.7036 20.2964 10 19.4286 10H14.7143C12.1147 10 10 12.1147 10 14.7143V19.4286C10 20.2964 10.7036 21 11.5714 21ZM14.7143 54H19.4286C20.2964 54 21 53.2964 21 52.4286C21 51.5608 20.2964 50.8571 19.4286 50.8571H14.7143C13.848 50.8571 13.1429 50.152 13.1429 49.2857V44.5714C13.1429 43.7036 12.4392 43 11.5714 43C10.7036 43 10 43.7036 10 44.5714V49.2857C10 51.8853 12.1147 54 14.7143 54ZM37.0903 21.8087C32.8801 17.597 26.025 17.5963 21.8087 21.8064C19.7677 23.8467 18.6436 26.5591 18.6429 29.4449C18.6421 32.3307 19.7662 35.0439 21.8072 37.0841C23.9134 39.1911 26.6811 40.2446 29.4487 40.2439C31.718 40.2439 33.9816 39.5238 35.8867 38.1073L42.6747 44.896C42.9816 45.2029 43.3836 45.3564 43.7857 45.3564C44.1878 45.3564 44.5898 45.2029 44.8968 44.896C45.5106 44.2822 45.5106 43.2877 44.8968 42.6739L38.1106 35.887C39.4942 34.0343 40.2539 31.8021 40.2546 29.4487C40.2546 26.5629 39.1313 23.8497 37.0903 21.8087ZM29.4487 21.7903C31.4115 21.7903 33.3742 22.5369 34.8682 24.0308C36.3153 25.478 37.1117 27.4023 37.1117 29.448C37.111 31.4936 36.3138 33.4172 34.8659 34.8636C31.878 37.8507 27.0172 37.8491 24.0293 34.862C22.5822 33.4149 21.7857 31.4913 21.7857 29.4457C21.7857 27.3993 22.5829 25.4764 24.0308 24.0301C25.5248 22.5369 27.4867 21.7903 29.4487 21.7903Z" fill="#303036"/>
</svg>
