<svg width="80" height="120" viewBox="0 0 80 120" fill="none" xmlns="http://www.w3.org/2000/svg">
<path d="M26.366 15.8419C26.366 13.1678 28.5151 11 31.166 11H47.166C49.817 11 51.966 13.1678 51.966 15.8419V17.4559C51.966 20.464 49.9264 22.9917 47.166 23.7084V28.7537C48.4353 28.7537 49.5686 29.3091 50.4828 30.0084C51.4058 30.7145 52.2182 31.6508 52.8856 32.6324C54.18 34.5365 55.166 36.9747 55.166 38.841C55.166 40.93 53.7353 42.6819 51.8084 43.1541L53.9006 53.5759C54.3676 55.9662 52.2228 57.5539 51.0121 53.5759L47.6144 43.2794H47.1154L46.9721 49.7068C46.9018 52.1805 44.9026 51.8587 44.8102 49.7068L44.1752 43.2794H34.1584L33.5232 49.7068C33.4308 51.8587 31.4314 52.1805 31.3614 49.7068L31.218 43.2794H30.7177L27.32 53.5759C26.1092 57.5539 23.9644 55.9662 24.4314 53.5759L26.5237 43.1541C24.5968 42.6819 23.166 40.93 23.166 38.841C23.166 36.9747 24.1521 34.5365 25.4465 32.6324C26.1138 31.6508 26.9263 30.7145 27.8492 30.0084C28.7634 29.3091 29.8968 28.7537 31.166 28.7537V23.7084C28.4057 22.9917 26.366 20.464 26.366 17.4559V15.8419ZM31.166 31.9816C30.8353 31.9816 30.3686 32.1324 29.7828 32.5804C29.2058 33.0218 28.6183 33.6743 28.0856 34.458C26.98 36.0844 26.366 37.8827 26.366 38.841C26.366 39.5095 26.9033 40.0515 27.566 40.0515H50.766C51.4288 40.0515 51.966 39.5095 51.966 38.841C51.966 37.8827 51.3521 36.0844 50.2465 34.458C49.7138 33.6743 49.1262 33.0218 48.5492 32.5804C47.9634 32.1324 47.4968 31.9816 47.166 31.9816H31.166ZM43.966 28.7537V23.9118H34.366V28.7537H43.966ZM48.766 17.4559V15.8419C48.766 14.9506 48.0497 14.2279 47.166 14.2279H31.166C30.2824 14.2279 29.566 14.9506 29.566 15.8419V17.4559C29.566 19.2386 30.9986 20.6838 32.766 20.6838H45.566C47.3334 20.6838 48.766 19.2386 48.766 17.4559Z" fill="white"/>
<path d="M11.0157 92.9712V84.1449C9.70999 84.6101 8.72487 84.9474 8.06036 85.1566C7.40749 85.3543 6.96443 85.4531 6.73126 85.4531C6.21829 85.4531 5.82195 85.3137 5.54214 85.0344C5.27398 84.7554 5.1399 84.3542 5.1399 83.8309C5.1399 82.9471 5.79277 82.3483 7.09851 82.0342L11.0157 80.9178V73.1381H8.79478C8.61996 75.3244 8.34598 76.9699 7.97291 78.0746C7.61148 79.1793 7.11597 79.7318 6.48646 79.7318C6.02012 79.7318 5.65287 79.6154 5.38471 79.383C5.12826 79.1503 5 78.8189 5 78.3886V78.3711V78.3537L5.1399 77.6211V77.6036C5.79277 75.2895 6.1892 72.2253 6.3291 68.411C6.37566 66.9109 6.85952 66.1608 7.78056 66.1608C8.24689 66.1608 8.60243 66.2888 8.84724 66.5446C9.10376 66.7888 9.23202 67.1435 9.23202 67.6086V67.6261L9.09212 69.7542L9.03966 70.103H11.0157V64.2246C11.0157 63.6781 11.1382 63.2536 11.383 62.9513C11.6394 62.6489 12.0126 62.4977 12.5022 62.4977C12.9918 62.4977 13.3591 62.6489 13.6039 62.9513C13.8604 63.2536 13.9887 63.6781 13.9887 64.2246V70.103H15.9647C16.4544 70.103 16.8275 70.2368 17.0839 70.5042C17.3522 70.7717 17.4862 71.1554 17.4862 71.6554C17.4862 72.1322 17.3522 72.4985 17.0839 72.7544C16.8275 73.0102 16.4544 73.1381 15.9647 73.1381H13.9887V79.9585L15.0554 79.5398C15.2302 79.47 15.3818 79.4177 15.51 79.383C15.6499 79.3364 15.7782 79.3014 15.8948 79.2783C16.0114 79.255 16.1163 79.2434 16.2095 79.2434C16.6642 79.2434 17.014 79.3713 17.2587 79.6271C17.5036 79.8712 17.6261 80.226 17.6261 80.6911C17.6261 81.3075 17.2937 81.7609 16.6292 82.0516C16.1163 82.2725 15.2361 82.6216 13.9887 83.0983V92.9712C13.9887 93.5295 13.8604 93.9596 13.6039 94.2621C13.3591 94.576 12.9918 94.7329 12.5022 94.7329C12.0126 94.7329 11.6394 94.576 11.383 94.2621C11.1382 93.9596 11.0157 93.5295 11.0157 92.9712ZM26.5448 92.3084C26.5448 91.2618 27.3375 90.6978 28.923 90.6163C30.322 90.5467 31.1439 90.3024 31.3889 89.8837L31.4063 89.8488L31.4412 89.8314C31.6161 89.6686 31.791 89.1046 31.9659 88.1394C32.1524 87.1626 32.3331 85.7322 32.5081 83.8484C32.6828 81.9529 32.8403 79.7084 32.9801 77.1153L33.1901 72.5277C33.1901 72.4114 33.1842 72.3067 33.1725 72.2137C33.1609 72.1207 33.1376 72.0392 33.1026 71.9694C33.0793 71.8997 33.0443 71.8415 32.9976 71.795C32.9511 71.7369 32.8928 71.6962 32.8228 71.6729C32.7528 71.638 32.6713 71.6147 32.5779 71.6031C32.4964 71.5799 32.4031 71.5683 32.2981 71.5683H31.5986C31.0274 75.6267 30.1764 79.005 29.0455 81.7028C27.868 84.4472 26.0493 87.0405 23.5894 89.4825C21.0711 91.9129 19.2873 93.1282 18.2381 93.1282C17.7484 93.1282 17.3696 92.9829 17.1015 92.6921C16.8449 92.4131 16.7167 92.006 16.7167 91.471C16.7167 90.8896 17.2705 90.2443 18.3781 89.5348C24.4287 85.674 27.8446 79.6852 28.6258 71.5683H26.7196C25.9386 75.6733 24.4404 78.9992 22.2253 81.5459C21.4675 82.4296 20.8088 83.1506 20.2491 83.7088C19.7013 84.267 19.2116 84.6973 18.7802 84.9995C18.3489 85.302 17.9934 85.4531 17.7134 85.4531C17.2355 85.4531 16.8683 85.3251 16.6118 85.0693C16.3553 84.8135 16.2271 84.4472 16.2271 83.9704C16.2271 83.6681 16.3553 83.3542 16.6118 83.0285C16.74 82.8773 16.8974 82.7146 17.0839 82.5401C17.2705 82.3658 17.4862 82.1738 17.731 81.9645C21.1585 79.2783 23.1987 75.8127 23.8517 71.5683H21.3683C20.4824 73.6964 19.6954 75.2837 19.0076 76.3303C18.3314 77.3652 17.7019 77.8828 17.1189 77.8828C16.6292 77.8828 16.2503 77.749 15.9823 77.4816C15.7257 77.214 15.5975 76.8303 15.5975 76.3303C15.5975 76.0628 15.9473 75.3768 16.6468 74.2719C17.5212 72.8882 18.1681 71.5856 18.5879 70.3647C18.7394 69.9112 18.8852 69.4518 19.0251 68.9867C19.1766 68.5099 19.3166 68.0389 19.4448 67.5737C19.5846 67.097 19.7129 66.6202 19.8296 66.1434C19.9578 65.6666 20.0743 65.1898 20.1793 64.7131C20.5056 63.2362 21.141 62.4977 22.0854 62.4977C22.6217 62.4977 23.0297 62.6315 23.3095 62.8989C23.601 63.1548 23.7467 63.5269 23.7467 64.0153C23.7467 64.527 23.327 66.0096 22.4875 68.4633H32.6828C33.872 68.4633 34.7698 68.7424 35.376 69.3006C35.9939 69.8472 36.3027 70.6555 36.3027 71.7252C36.3027 77.6676 35.9997 83.0226 35.3935 87.7906C35.2302 89.1046 35.0088 90.1803 34.729 91.0175C34.6007 91.4478 34.4433 91.8199 34.2568 92.1339C34.0818 92.4595 33.8837 92.727 33.6623 92.9363C32.7295 93.7853 31.1906 94.2097 29.0455 94.2097C27.3783 94.2097 26.5448 93.5759 26.5448 92.3084ZM52.1991 78.4758C52.4438 78.7433 52.5663 79.1329 52.5663 79.6445C52.5663 80.3655 52.1349 80.8481 51.2722 81.0923L48.8589 81.9122V90.8432C48.8822 91.1105 48.888 91.3663 48.8764 91.6107C48.8182 92.634 48.4684 93.3899 47.8272 93.8783C47.1975 94.3666 46.2998 94.5818 45.1341 94.5236H43.2454C42.7207 94.5236 42.3185 94.3783 42.0387 94.0875C41.759 93.8085 41.619 93.4015 41.619 92.8665C41.619 92.3316 41.759 91.9188 42.0387 91.6281C42.3185 91.3489 42.7207 91.2095 43.2454 91.2095H44.5744C44.8194 91.2095 45.0174 91.1688 45.1691 91.0873C45.3206 91.006 45.4372 90.8781 45.5188 90.7036C45.6121 90.5292 45.6646 90.3083 45.6761 90.0408V82.9064L45.0816 83.0809C43.4377 83.546 42.4877 83.7786 42.2312 83.7786C41.7647 83.7786 41.4092 83.6332 41.1643 83.3425C40.9312 83.0401 40.8145 82.6216 40.8145 82.0865C40.8145 81.6215 41.0186 81.2435 41.4267 80.9527C41.8464 80.6504 42.441 80.4178 43.2105 80.255L45.6761 79.662V72.3009H42.6858C42.103 72.3009 41.6715 72.173 41.3918 71.9171C41.1002 71.6613 40.9545 71.2717 40.9545 70.7485C40.9545 70.2484 41.1061 69.8646 41.4092 69.5972C41.7123 69.3297 42.1378 69.196 42.6858 69.196H45.6761V64.12C45.6761 63.585 45.816 63.178 46.0958 62.8989C46.3756 62.6082 46.7778 62.4629 47.3025 62.4629C47.8038 62.4629 48.1885 62.6082 48.4567 62.8989C48.7248 63.178 48.8589 63.585 48.8589 64.12V69.196H50.8349C51.4063 69.196 51.8493 69.3297 52.1641 69.5972C52.4788 69.853 52.6363 70.2368 52.6363 70.7485C52.6363 71.2601 52.4788 71.6496 52.1641 71.9171C51.8493 72.173 51.4063 72.3009 50.8349 72.3009H48.8589V78.7549L50.8176 78.1444L50.8349 78.127H50.8525L51.1673 78.0921C51.6103 78.0688 51.9543 78.1967 52.1991 78.4758ZM73.1319 74.7255C73.1319 75.2837 72.9863 75.714 72.6946 76.0164C72.4148 76.3069 72.0067 76.4523 71.4702 76.4523C70.351 76.4523 68.7364 75.4698 66.6263 73.5044C64.5281 71.5741 62.7965 69.5564 61.4325 67.4516C61.0828 68.0331 60.6688 68.6378 60.1908 69.2657C59.7246 69.8937 59.1999 70.545 58.617 71.2193C58.0458 71.8823 57.4104 72.5858 56.7109 73.3301C54.5307 75.6442 52.9568 76.8012 51.9891 76.8012C51.4529 76.8012 51.0391 76.6617 50.7476 76.3827C50.4677 76.0919 50.3279 75.6791 50.3279 75.1441C50.3279 74.8417 50.4911 74.5162 50.8176 74.1674C51.1206 73.8418 51.5869 73.4406 52.2166 72.9638C55.5509 70.4984 58.0166 67.4807 59.6138 63.9107C60.0218 62.992 60.6164 62.5326 61.3975 62.5326C62.5284 62.5326 63.0938 62.9455 63.0938 63.7711C63.0938 63.7827 63.0938 63.8002 63.0938 63.8234C63.0938 63.8351 63.0879 63.8467 63.0764 63.8583C63.0764 63.87 63.0705 63.8874 63.0589 63.9107C63.0589 63.9339 63.0529 63.9572 63.0414 63.9804C63.0414 64.0037 63.0355 64.0328 63.0239 64.0676C63.0239 64.1025 63.0181 64.1316 63.0064 64.1549C62.9947 64.1781 62.9831 64.213 62.9714 64.2596C62.9597 64.2944 62.9481 64.3293 62.9364 64.3642C62.9364 64.3991 62.9247 64.4398 62.9014 64.4863C62.8898 64.5328 62.8781 64.5735 62.8664 64.6084C64.0327 66.4225 65.3675 68.0331 66.871 69.4402C68.3864 70.8357 70.066 72.0276 71.9074 73.0161C72.7237 73.4463 73.1319 74.0161 73.1319 74.7255ZM56.0114 77.3594C55.51 77.3594 55.1369 77.2373 54.8922 76.9931C54.6473 76.749 54.525 76.3652 54.525 75.8419C54.525 75.3185 54.6473 74.9349 54.8922 74.6906C55.1369 74.4464 55.51 74.3243 56.0114 74.3243H67.1336C67.6112 74.3243 67.979 74.458 68.2349 74.7255C68.4916 74.9813 68.62 75.3534 68.62 75.8419C68.62 76.3303 68.4916 76.7081 68.2349 76.9756C67.979 77.2315 67.6112 77.3594 67.1336 77.3594H56.0114ZM67.2038 80.5341C68.3693 80.5341 69.2206 80.7958 69.7563 81.3191C70.3047 81.8424 70.5435 82.6912 70.4734 83.8658V90.1803C70.4734 91.3664 70.2115 92.2386 69.6869 92.7968C69.1616 93.3433 68.3342 93.5816 67.2038 93.512H56.3611C55.1719 93.512 54.3034 93.2503 53.7555 92.727C53.2191 92.2037 52.9861 91.378 53.056 90.25V83.796C53.056 82.6331 53.3183 81.7843 53.8428 81.2494C54.3675 80.7028 55.2069 80.4644 56.3611 80.5341H67.2038ZM67.2911 84.5287C67.2911 84.1914 67.209 83.9472 67.0463 83.796C66.8941 83.6332 66.6434 83.546 66.2942 83.5343H57.2005C57.0722 83.5343 56.9557 83.546 56.8507 83.5692C56.7458 83.5925 56.6527 83.6332 56.5709 83.6914C56.501 83.7379 56.4369 83.8018 56.3786 83.8832C56.332 83.9647 56.2911 84.0577 56.2562 84.1624C56.2329 84.267 56.2154 84.3891 56.2037 84.5287V89.5174C56.2037 89.843 56.2794 90.0872 56.4311 90.25C56.5942 90.4013 56.8507 90.4884 57.2005 90.5118H66.2942C66.6203 90.5118 66.8598 90.4362 67.0113 90.2849C67.1739 90.1221 67.2672 89.8663 67.2911 89.5174V84.5287Z" fill="url(#paint0_linear_4331_6957)"/>
<path d="M37.5856 107.444C37.5856 106.432 37.5415 105.714 37.4534 105.289C37.38 104.85 37.233 104.564 37.0126 104.432C36.7922 104.3 36.4175 104.234 35.8885 104.234C35.3155 104.234 34.8967 104.366 34.6323 104.63C34.3825 104.893 34.2208 105.275 34.1474 105.773C34.0886 106.257 34.0593 107.004 34.0593 108.015V113.863H32.0977V97.5288H34.0593V103.97H34.1694C34.5661 102.974 35.4257 102.475 36.7481 102.475C37.5415 102.475 38.1366 102.622 38.5333 102.915C38.9301 103.208 39.1945 103.648 39.3267 104.234C39.4737 104.82 39.5471 105.634 39.5471 106.674V113.863H37.5856V107.444ZM45.5899 114.039C44.385 114.039 43.5108 113.885 42.9672 113.577C42.4382 113.255 42.0929 112.713 41.9313 111.95C41.7843 111.188 41.7109 109.957 41.7109 108.257C41.7109 106.557 41.7843 105.326 41.9313 104.564C42.0929 103.802 42.4382 103.267 42.9672 102.959C43.5108 102.636 44.385 102.475 45.5899 102.475C46.7947 102.475 47.6617 102.636 48.1906 102.959C48.7342 103.267 49.0795 103.802 49.2265 104.564C49.388 105.326 49.4689 106.557 49.4689 108.257C49.4689 109.957 49.388 111.188 49.2265 111.95C49.0795 112.713 48.7342 113.255 48.1906 113.577C47.6617 113.885 46.7947 114.039 45.5899 114.039ZM45.5899 112.39C46.2216 112.39 46.6624 112.302 46.9122 112.126C47.1768 111.936 47.3384 111.577 47.3972 111.049C47.4706 110.521 47.5074 109.591 47.5074 108.257C47.5074 106.923 47.4706 105.993 47.3972 105.465C47.3384 104.938 47.1768 104.586 46.9122 104.41C46.6624 104.219 46.2216 104.124 45.5899 104.124C44.9433 104.124 44.4952 104.219 44.2455 104.41C43.9956 104.586 43.834 104.938 43.7606 105.465C43.7018 105.978 43.6723 106.909 43.6723 108.257C43.6723 109.605 43.7018 110.543 43.7606 111.071C43.834 111.584 43.9956 111.936 44.2455 112.126C44.4952 112.302 44.9433 112.39 45.5899 112.39ZM62.2413 107.444C62.2413 106.418 62.2047 105.692 62.1311 105.267C62.0725 104.842 61.9402 104.564 61.7344 104.432C61.5288 104.3 61.1835 104.234 60.6986 104.234C60.1403 104.234 59.7288 104.366 59.4644 104.63C59.2146 104.879 59.0603 105.245 59.0015 105.729C58.9428 106.213 58.9134 106.975 58.9134 108.015V113.863H56.9518V107.444C56.9518 106.432 56.9152 105.714 56.8416 105.289C56.7682 104.85 56.6287 104.564 56.4228 104.432C56.232 104.3 55.8939 104.234 55.409 104.234C54.8507 104.234 54.4393 104.366 54.1748 104.63C53.925 104.893 53.7707 105.275 53.7119 105.773C53.6533 106.271 53.6238 107.019 53.6238 108.015V113.863H51.6622V102.651H53.4254L53.5136 104.146H53.6458C53.8516 103.604 54.1528 103.193 54.5495 102.915C54.9462 102.622 55.5046 102.475 56.2245 102.475C57.0033 102.475 57.5763 102.607 57.9436 102.871C58.3257 103.12 58.5902 103.545 58.737 104.146H58.8693C59.0603 103.604 59.3616 103.193 59.7729 102.915C60.1991 102.622 60.7721 102.475 61.492 102.475C62.2561 102.475 62.8291 102.622 63.2111 102.915C63.5932 103.193 63.8502 103.626 63.9822 104.212C64.1292 104.798 64.2031 105.619 64.2031 106.674V113.863H62.2413V107.444ZM73.8701 108.873H68.3158C68.3158 109.957 68.3673 110.734 68.4703 111.203C68.5732 111.657 68.7859 111.972 69.1097 112.148C69.4469 112.309 70.0133 112.39 70.8064 112.39C71.6145 112.39 72.533 112.317 73.5612 112.17V113.709C73.209 113.797 72.7315 113.87 72.1286 113.929C71.5414 114.002 70.9683 114.039 70.4095 114.039C69.1903 114.039 68.2942 113.863 67.7211 113.511C67.1623 113.16 66.7952 112.603 66.6191 111.84C66.4572 111.064 66.3766 109.877 66.3766 108.279C66.3766 106.696 66.4497 105.524 66.5967 104.762C66.7586 103.985 67.1108 103.413 67.6547 103.047C68.1987 102.666 69.0723 102.475 70.2774 102.475C71.4235 102.475 72.2465 102.651 72.7456 103.003C73.2455 103.355 73.5544 103.904 73.6716 104.652C73.8037 105.399 73.8701 106.601 73.8701 108.257V108.873ZM70.2334 104.08C69.6454 104.08 69.2194 104.161 68.9552 104.322C68.7053 104.483 68.5367 104.791 68.4479 105.245C68.3747 105.7 68.3307 106.454 68.3158 107.51H71.9965V107.334C71.9965 106.337 71.945 105.619 71.8421 105.179C71.754 104.725 71.5928 104.432 71.3571 104.3C71.122 104.153 70.7475 104.08 70.2334 104.08Z" fill="#E6EBF9"/>
<path d="M12.5584 113.863L10.7952 108.015H10.663H8.12837V113.863H6.05664V98.7383H10.8393C11.8825 98.7383 12.6686 98.9288 13.1976 99.3098C13.7265 99.6763 14.0718 100.182 14.2334 100.827C14.395 101.472 14.4758 102.322 14.4758 103.377C14.4758 104.476 14.3583 105.385 14.1232 106.103C13.9028 106.806 13.4473 107.312 12.7567 107.62L14.7403 113.863H12.5584ZM10.3103 106.235C10.9274 106.235 11.383 106.139 11.6768 105.949C11.9707 105.758 12.1617 105.473 12.2498 105.092C12.338 104.696 12.3821 104.124 12.3821 103.377C12.3821 102.615 12.338 102.043 12.2498 101.662C12.1764 101.281 11.9927 101.003 11.6989 100.827C11.4197 100.636 10.9642 100.541 10.3324 100.541H8.12837V106.235H10.3103ZM23.935 108.873H18.381C18.381 109.957 18.4324 110.734 18.5353 111.203C18.6382 111.657 18.8511 111.972 19.1744 112.148C19.5123 112.309 20.0781 112.39 20.8715 112.39C21.6796 112.39 22.5979 112.317 23.6265 112.17V113.709C23.2738 113.797 22.7962 113.87 22.1939 113.929C21.6062 114.002 21.0331 114.039 20.4748 114.039C19.2553 114.039 18.359 113.863 17.7859 113.511C17.2277 113.16 16.8603 112.603 16.684 111.84C16.5223 111.064 16.4415 109.877 16.4415 108.279C16.4415 106.696 16.515 105.524 16.6619 104.762C16.8236 103.985 17.1761 103.413 17.7198 103.047C18.2635 102.666 19.1376 102.475 20.3426 102.475C21.4886 102.475 22.3114 102.651 22.811 103.003C23.3106 103.355 23.6192 103.904 23.7367 104.652C23.8689 105.399 23.935 106.601 23.935 108.257V108.873ZM20.2985 104.08C19.7107 104.08 19.2846 104.161 19.0202 104.322C18.7705 104.483 18.6014 104.791 18.5133 105.245C18.4398 105.7 18.3957 106.454 18.381 107.51H22.0617V107.334C22.0617 106.337 22.0103 105.619 21.9074 105.179C21.8192 104.725 21.6576 104.432 21.4225 104.3C21.1873 104.154 20.8127 104.08 20.2985 104.08ZM26.1116 104.894V102.651H28.3156V104.894H26.1116ZM26.1116 113.863V111.621H28.3156V113.863H26.1116Z" fill="#E6EBF9"/>
<defs>
<linearGradient id="paint0_linear_4331_6957" x1="39.0659" y1="62.4629" x2="39.0659" y2="94.7329" gradientUnits="userSpaceOnUse">
<stop stop-color="white"/>
<stop offset="1" stop-color="#E6EBF9"/>
</linearGradient>
</defs>
</svg>
