<svg width="64" height="90" viewBox="0 0 64 90" fill="none" xmlns="http://www.w3.org/2000/svg">
<path d="M6.4 9.68382C6.4 4.33561 10.6981 0 16 0H48C53.302 0 57.6 4.33561 57.6 9.68382V12.9118C57.6 18.9281 53.5207 23.9834 48 25.4167V35.5073C50.5385 35.5073 52.8052 36.6181 54.6336 38.0167C56.4796 39.429 58.1044 41.3015 59.4391 43.2648C62.0279 47.0731 64 51.9494 64 55.6819C64 59.8599 61.1385 63.3638 57.2848 64.3082L61.4692 85.1517C62.4032 89.9323 58.1136 93.1077 55.6921 85.1517L48.8967 64.5588H47.8988L47.6121 77.4137C47.4716 82.361 43.4732 81.7173 43.2884 77.4137L42.0183 64.5588H21.9847L20.7143 77.4137C20.5296 81.7173 16.5308 82.361 16.3908 77.4137L16.104 64.5588H15.1033L8.30791 85.1517C5.8864 93.1077 1.5968 89.9323 2.53084 85.1517L6.71538 64.3082C2.86151 63.3638 0 59.8599 0 55.6819C0 51.9494 1.97209 47.0731 4.56089 43.2648C5.89564 41.3015 7.52053 39.429 9.3664 38.0167C11.1948 36.6181 13.4615 35.5073 16 35.5073V25.4167C10.4793 23.9834 6.4 18.9281 6.4 12.9118V9.68382ZM16 41.9632C15.3385 41.9632 14.4052 42.2647 13.2336 43.1608C12.0796 44.0437 10.9045 45.3487 9.83911 46.9159C7.62791 50.1687 6.4 53.7655 6.4 55.6819C6.4 57.019 7.47449 58.1029 8.8 58.1029H55.2C56.5255 58.1029 57.6 57.019 57.6 55.6819C57.6 53.7655 56.3721 50.1687 54.1609 46.9159C53.0956 45.3487 51.9204 44.0437 50.7664 43.1608C49.5948 42.2647 48.6615 41.9632 48 41.9632H16ZM41.6 35.5073V25.8235H22.4V35.5073H41.6ZM51.2 12.9118V9.68382C51.2 7.9011 49.7673 6.45588 48 6.45588H16C14.2327 6.45588 12.8 7.9011 12.8 9.68382V12.9118C12.8 16.4773 15.6652 19.3676 19.2 19.3676H44.8C48.3348 19.3676 51.2 16.4773 51.2 12.9118Z" fill="white"/>
</svg>
